BalooBhaijaan.ufo
<glyph name="dieresis" format="1">
  <advance width="374"/>
  <unicode hex="00A8"/>
  <outline>
    <contour>
      <point x="-14" y="637" type="curve"/>
      <point x="-14" y="590"/>
      <point x="24" y="551"/>
      <point x="73" y="551" type="curve" smooth="yes"/>
      <point x="128" y="551"/>
      <point x="163" y="590"/>
      <point x="163" y="637" type="curve" smooth="yes"/>
      <point x="163" y="683"/>
      <point x="128" y="723"/>
      <point x="73" y="723" type="curve" smooth="yes"/>
      <point x="24" y="723"/>
      <point x="-14" y="683"/>
    </contour>
    <contour>
      <point x="210" y="637" type="curve"/>
      <point x="210" y="590"/>
      <point x="244" y="551"/>
      <point x="299" y="551" type="curve" smooth="yes"/>
      <point x="350" y="551"/>
      <point x="387" y="590"/>
      <point x="387" y="637" type="curve" smooth="yes"/>
      <point x="387" y="683"/>
      <point x="350" y="723"/>
      <point x="299" y="723" type="curve" smooth="yes"/>
      <point x="244" y="723"/>
      <point x="210" y="683"/>
    </contour>
  </outline>
</glyph>
<glyph name="AlefMadda.ur" format="1">
  <advance width="276"/>
  <unicode hex="0622"/>
  <outline>
    <contour>
      <point x="226" y="531" type="line"/>
      <point x="226" y="596"/>
      <point x="185" y="608"/>
      <point x="130" y="608" type="curve" smooth="yes"/>
      <point x="100" y="608"/>
      <point x="65" y="602"/>
      <point x="50" y="600" type="curve"/>
      <point x="50" y="68" type="line" smooth="yes"/>
      <point x="50" y="5"/>
      <point x="89" y="-10"/>
      <point x="146" y="-10" type="curve" smooth="yes"/>
      <point x="176" y="-10"/>
      <point x="212" y="-4"/>
      <point x="226" y="0" type="curve"/>
    </contour>
    <contour>
      <point x="184" y="771" type="curve"/>
      <point x="151" y="771"/>
      <point x="119" y="814"/>
      <point x="72" y="814" type="curve" smooth="yes"/>
      <point x="36" y="814"/>
      <point x="-31" y="770"/>
      <point x="-31" y="732" type="curve" smooth="yes"/>
      <point x="-31" y="702"/>
      <point x="-4" y="680"/>
      <point x="28" y="675" type="curve"/>
      <point x="45" y="692"/>
      <point x="63" y="708"/>
      <point x="82" y="718" type="curve"/>
      <point x="115" y="695"/>
      <point x="147" y="677"/>
      <point x="198" y="677" type="curve" smooth="yes"/>
      <point x="271" y="677"/>
      <point x="298" y="720"/>
      <point x="298" y="753" type="curve"/>
      <point x="298" y="787"/>
      <point x="279" y="807"/>
      <point x="241" y="807" type="curve"/>
      <point x="235" y="807" type="line"/>
      <point x="219" y="780"/>
      <point x="207" y="771"/>
    </contour>
  </outline>
</glyph>
<glyph name="AlefHamzaAbove.ur" format="1">
  <advance width="276"/>
  <unicode hex="0623"/>
  <outline>
    <contour>
      <point x="226" y="531" type="line"/>
      <point x="226" y="596"/>
      <point x="185" y="608"/>
      <point x="130" y="608" type="curve" smooth="yes"/>
      <point x="100" y="608"/>
      <point x="65" y="602"/>
      <point x="50" y="600" type="curve"/>
      <point x="50" y="68" type="line" smooth="yes"/>
      <point x="50" y="5"/>
      <point x="89" y="-10"/>
      <point x="146" y="-10" type="curve" smooth="yes"/>
      <point x="176" y="-10"/>
      <point x="212" y="-4"/>
      <point x="226" y="0" type="curve"/>
    </contour>
    <contour>
      <point x="156" y="775" type="curve" smooth="yes"/>
      <point x="156" y="797"/>
      <point x="176" y="807"/>
      <point x="195" y="807" type="curve" smooth="yes"/>
      <point x="206" y="807"/>
      <point x="216" y="805"/>
      <point x="224" y="802" type="curve"/>
      <point x="232" y="810"/>
      <point x="235" y="823"/>
      <point x="235" y="833" type="curve" smooth="yes"/>
      <point x="235" y="861"/>
      <point x="213" y="883"/>
      <point x="162" y="883" type="curve" smooth="yes"/>
      <point x="97" y="883"/>
      <point x="52" y="850"/>
      <point x="52" y="800" type="curve" smooth="yes"/>
      <point x="52" y="769"/>
      <point x="70" y="752"/>
      <point x="82" y="744" type="curve"/>
      <point x="48" y="744" type="line" smooth="yes"/>
      <point x="24" y="744"/>
      <point x="13" y="725"/>
      <point x="13" y="701" type="curve" smooth="yes"/>
      <point x="13" y="687"/>
      <point x="18" y="673"/>
      <point x="23" y="667" type="curve"/>
      <point x="198" y="667" type="line" smooth="yes"/>
      <point x="236" y="667"/>
      <point x="250" y="681"/>
      <point x="250" y="709" type="curve" smooth="yes"/>
      <point x="250" y="722"/>
      <point x="245" y="736"/>
      <point x="239" y="744" type="curve"/>
      <point x="192" y="744" type="line" smooth="yes"/>
      <point x="168" y="744"/>
      <point x="156" y="757"/>
    </contour>
  </outline>
</glyph>
<glyph name="YeChotiHamza.ur" format="1">
  <advance width="871"/>
  <unicode hex="0626"/>
  <outline>
    <contour>
      <point x="223" y="135" type="curve" smooth="yes"/>
      <point x="223" y="164"/>
      <point x="224" y="237"/>
      <point x="225" y="263" type="curve"/>
      <point x="206" y="270"/>
      <point x="178" y="274"/>
      <point x="154" y="274" type="curve" smooth="yes"/>
      <point x="85" y="274"/>
      <point x="40" y="252"/>
      <point x="40" y="100" type="curve" smooth="yes"/>
      <point x="40" y="-185"/>
      <point x="208" y="-253"/>
      <point x="423" y="-253" type="curve" smooth="yes"/>
      <point x="671" y="-253"/>
      <point x="820" y="-160"/>
      <point x="820" y="-22" type="curve" smooth="yes"/>
      <point x="820" y="86"/>
      <point x="754" y="138"/>
      <point x="633" y="169" type="curve" smooth="yes"/>
      <point x="564" y="187" type="line"/>
      <point x="584" y="240"/>
      <point x="644" y="304"/>
      <point x="750" y="304" type="curve" smooth="yes"/>
      <point x="765" y="304"/>
      <point x="791" y="302"/>
      <point x="809" y="297" type="curve"/>
      <point x="821" y="313"/>
      <point x="831" y="340"/>
      <point x="831" y="369" type="curve" smooth="yes"/>
      <point x="831" y="422"/>
      <point x="790" y="452"/>
      <point x="714" y="452" type="curve" smooth="yes"/>
      <point x="518" y="452"/>
      <point x="382" y="290"/>
      <point x="382" y="141" type="curve" smooth="yes"/>
      <point x="382" y="94"/>
      <point x="399" y="69"/>
      <point x="456" y="53" type="curve" smooth="yes"/>
      <point x="572" y="21" type="line" smooth="yes"/>
      <point x="616" y="9"/>
      <point x="629" y="-3"/>
      <point x="629" y="-19" type="curve" smooth="yes"/>
      <point x="629" y="-59"/>
      <point x="559" y="-99"/>
      <point x="429" y="-99" type="curve" smooth="yes"/>
      <point x="279" y="-99"/>
      <point x="223" y="-62"/>
    </contour>
    <contour>
      <point x="215" y="401" type="line" smooth="yes"/>
      <point x="187" y="401"/>
      <point x="175" y="413"/>
      <point x="175" y="432" type="curve" smooth="yes"/>
      <point x="175" y="454"/>
      <point x="195" y="464"/>
      <point x="214" y="464" type="curve" smooth="yes"/>
      <point x="225" y="464"/>
      <point x="235" y="462"/>
      <point x="243" y="459" type="curve"/>
      <point x="251" y="467"/>
      <point x="254" y="480"/>
      <point x="254" y="490" type="curve" smooth="yes"/>
      <point x="254" y="518"/>
      <point x="232" y="540"/>
      <point x="181" y="540" type="curve" smooth="yes"/>
      <point x="116" y="540"/>
      <point x="71" y="507"/>
      <point x="71" y="457" type="curve" smooth="yes"/>
      <point x="71" y="426"/>
      <point x="89" y="409"/>
      <point x="101" y="401" type="curve"/>
      <point x="67" y="401" type="line" smooth="yes"/>
      <point x="43" y="401"/>
      <point x="32" y="382"/>
      <point x="32" y="358" type="curve" smooth="yes"/>
      <point x="32" y="344"/>
      <point x="37" y="330"/>
      <point x="42" y="324" type="curve"/>
      <point x="217" y="324" type="line" smooth="yes"/>
      <point x="255" y="324"/>
      <point x="269" y="338"/>
      <point x="269" y="366" type="curve" smooth="yes"/>
      <point x="269" y="379"/>
      <point x="264" y="393"/>
      <point x="258" y="401" type="curve"/>
    </contour>
  </outline>
</glyph>
<glyph name="Beh.ur" format="1">
  <advance width="946"/>
  <unicode hex="0628"/>
  <outline>
    <contour>
      <point x="472" y="-211" type="curve"/>
      <point x="523" y="-211"/>
      <point x="554" y="-178"/>
      <point x="554" y="-135" type="curve" smooth="yes"/>
      <point x="554" y="-90"/>
      <point x="519" y="-58"/>
      <point x="472" y="-58" type="curve" smooth="yes"/>
      <point x="426" y="-58"/>
      <point x="390" y="-90"/>
      <point x="390" y="-135" type="curve" smooth="yes"/>
      <point x="390" y="-178"/>
      <point x="423" y="-211"/>
    </contour>
    <contour>
      <point x="424" y="140" type="line"/>
      <point x="259" y="140"/>
      <point x="218" y="185"/>
      <point x="218" y="326" type="curve" smooth="yes"/>
      <point x="218" y="377" type="line"/>
      <point x="201" y="382"/>
      <point x="173" y="387"/>
      <point x="147" y="387" type="curve" smooth="yes"/>
      <point x="69" y="387"/>
      <point x="40" y="356"/>
      <point x="40" y="279" type="curve" smooth="yes"/>
      <point x="40" y="70"/>
      <point x="183" y="0"/>
      <point x="384" y="0" type="curve" smooth="yes"/>
      <point x="553" y="0" type="line" smooth="yes"/>
      <point x="809" y="0"/>
      <point x="906" y="102"/>
      <point x="906" y="289" type="curve" smooth="yes"/>
      <point x="906" y="409"/>
      <point x="871" y="429"/>
      <point x="798" y="429" type="curve" smooth="yes"/>
      <point x="772" y="429"/>
      <point x="747" y="425"/>
      <point x="722" y="419" type="curve"/>
      <point x="726" y="379"/>
      <point x="728" y="357"/>
      <point x="728" y="306" type="curve" smooth="yes"/>
      <point x="728" y="179"/>
      <point x="665" y="140"/>
      <point x="510" y="140" type="curve" smooth="yes"/>
    </contour>
  </outline>
</glyph>
<glyph name="TehMarbuta.ar" format="1">
  <advance width="562"/>
  <unicode hex="0629"/>
  <outline>
    <contour>
      <point x="315" y="316" type="curve"/>
      <point x="337" y="294"/>
      <point x="357" y="247"/>
      <point x="357" y="213" type="curve" smooth="yes"/>
      <point x="357" y="164"/>
      <point x="326" y="139"/>
      <point x="281" y="139" type="curve" smooth="yes"/>
      <point x="238" y="139"/>
      <point x="205" y="165"/>
      <point x="205" y="213" type="curve" smooth="yes"/>
      <point x="205" y="275"/>
      <point x="259" y="316"/>
    </contour>
    <contour>
      <point x="372" y="461" type="curve"/>
      <point x="357" y="462"/>
      <point x="336" y="462"/>
      <point x="328" y="462" type="curve" smooth="yes"/>
      <point x="178" y="462"/>
      <point x="29" y="376"/>
      <point x="29" y="209" type="curve" smooth="yes"/>
      <point x="29" y="63"/>
      <point x="145" y="-7"/>
      <point x="275" y="-7" type="curve" smooth="yes"/>
      <point x="430" y="-7"/>
      <point x="532" y="73"/>
      <point x="532" y="211" type="curve" smooth="yes"/>
      <point x="532" y="333"/>
      <point x="452" y="421"/>
    </contour>
    <contour>
      <point x="199" y="507" type="curve"/>
      <point x="249" y="507"/>
      <point x="279" y="540"/>
      <point x="279" y="583" type="curve" smooth="yes"/>
      <point x="279" y="628"/>
      <point x="245" y="660"/>
      <point x="199" y="660" type="curve" smooth="yes"/>
      <point x="154" y="660"/>
      <point x="119" y="628"/>
      <point x="119" y="583" type="curve" smooth="yes"/>
      <point x="119" y="540"/>
      <point x="151" y="507"/>
    </contour>
    <contour>
      <point x="388" y="507" type="curve"/>
      <point x="438" y="507"/>
      <point x="468" y="540"/>
      <point x="468" y="583" type="curve" smooth="yes"/>
      <point x="468" y="628"/>
      <point x="434" y="660"/>
      <point x="388" y="660" type="curve" smooth="yes"/>
      <point x="343" y="660"/>
      <point x="308" y="628"/>
      <point x="308" y="583" type="curve" smooth="yes"/>
      <point x="308" y="540"/>
      <point x="340" y="507"/>
    </contour>
  </outline>
</glyph>
<glyph name="Seh.ur" format="1">
  <advance width="946"/>
  <unicode hex="062B"/>
  <outline>
    <contour>
      <point x="424" y="140" type="line"/>
      <point x="259" y="140"/>
      <point x="218" y="185"/>
      <point x="218" y="326" type="curve" smooth="yes"/>
      <point x="218" y="377" type="line"/>
      <point x="201" y="382"/>
      <point x="173" y="387"/>
      <point x="147" y="387" type="curve" smooth="yes"/>
      <point x="69" y="387"/>
      <point x="40" y="356"/>
      <point x="40" y="279" type="curve" smooth="yes"/>
      <point x="40" y="70"/>
      <point x="183" y="0"/>
      <point x="384" y="0" type="curve" smooth="yes"/>
      <point x="553" y="0" type="line" smooth="yes"/>
      <point x="809" y="0"/>
      <point x="906" y="102"/>
      <point x="906" y="289" type="curve" smooth="yes"/>
      <point x="906" y="409"/>
      <point x="871" y="429"/>
      <point x="798" y="429" type="curve" smooth="yes"/>
      <point x="772" y="429"/>
      <point x="747" y="425"/>
      <point x="722" y="419" type="curve"/>
      <point x="726" y="379"/>
      <point x="728" y="357"/>
      <point x="728" y="306" type="curve" smooth="yes"/>
      <point x="728" y="179"/>
      <point x="665" y="140"/>
      <point x="510" y="140" type="curve" smooth="yes"/>
    </contour>
    <contour>
      <point x="371" y="351" type="curve"/>
      <point x="420" y="351"/>
      <point x="449" y="383"/>
      <point x="449" y="425" type="curve" smooth="yes"/>
      <point x="449" y="469"/>
      <point x="416" y="500"/>
      <point x="371" y="500" type="curve" smooth="yes"/>
      <point x="327" y="500"/>
      <point x="293" y="469"/>
      <point x="293" y="425" type="curve" smooth="yes"/>
      <point x="293" y="383"/>
      <point x="324" y="351"/>
    </contour>
    <contour>
      <point x="555" y="351" type="curve"/>
      <point x="604" y="351"/>
      <point x="633" y="383"/>
      <point x="633" y="425" type="curve" smooth="yes"/>
      <point x="633" y="469"/>
      <point x="600" y="500"/>
      <point x="555" y="500" type="curve" smooth="yes"/>
      <point x="511" y="500"/>
      <point x="477" y="469"/>
      <point x="477" y="425" type="curve" smooth="yes"/>
      <point x="477" y="383"/>
      <point x="508" y="351"/>
    </contour>
    <contour>
      <point x="462" y="502" type="curve"/>
      <point x="509" y="502"/>
      <point x="539" y="533"/>
      <point x="539" y="571" type="curve" smooth="yes"/>
      <point x="539" y="613"/>
      <point x="505" y="641"/>
      <point x="462" y="641" type="curve" smooth="yes"/>
      <point x="420" y="641"/>
      <point x="385" y="613"/>
      <point x="385" y="571" type="curve" smooth="yes"/>
      <point x="385" y="533"/>
      <point x="417" y="502"/>
    </contour>
  </outline>
</glyph>
<glyph name="HahBari.ur" format="1">
  <advance width="606"/>
  <unicode hex="062D"/>
  <outline>
    <contour>
      <point x="20" y="-90" type="curve" smooth="yes"/>
      <point x="20" y="-232"/>
      <point x="124" y="-310"/>
      <point x="267" y="-310" type="curve" smooth="yes"/>
      <point x="360" y="-310"/>
      <point x="387" y="-277"/>
      <point x="387" y="-228" type="curve" smooth="yes"/>
      <point x="387" y="-205"/>
      <point x="376" y="-178"/>
      <point x="366" y="-163" type="curve"/>
      <point x="346" y="-166"/>
      <point x="330" y="-168"/>
      <point x="304" y="-168" type="curve" smooth="yes"/>
      <point x="238" y="-168"/>
      <point x="202" y="-139"/>
      <point x="202" y="-88" type="curve" smooth="yes"/>
      <point x="202" y="-35"/>
      <point x="239" y="0"/>
      <point x="310" y="0" type="curve" smooth="yes"/>
      <point x="535" y="0" type="line"/>
      <point x="553" y="30"/>
      <point x="566" y="73"/>
      <point x="566" y="123" type="curve" smooth="yes"/>
      <point x="566" y="308"/>
      <point x="407" y="469"/>
      <point x="234" y="469" type="curve" smooth="yes"/>
      <point x="161" y="469"/>
      <point x="121" y="438"/>
      <point x="121" y="386" type="curve" smooth="yes"/>
      <point x="121" y="355"/>
      <point x="130" y="334"/>
      <point x="139" y="319" type="curve"/>
      <point x="161" y="319" type="line" smooth="yes"/>
      <point x="277" y="319"/>
      <point x="379" y="247"/>
      <point x="381" y="140" type="curve"/>
      <point x="296" y="140" type="line" smooth="yes"/>
      <point x="115" y="140"/>
      <point x="20" y="45"/>
    </contour>
  </outline>
</glyph>
<glyph name="Swad.ur" format="1">
  <advance width="1286"/>
  <unicode hex="0635"/>
  <outline>
    <contour>
      <point x="223" y="135" type="curve"/>
      <point x="223" y="164"/>
      <point x="224" y="237"/>
      <point x="225" y="263" type="curve"/>
      <point x="206" y="270"/>
      <point x="178" y="274"/>
      <point x="154" y="274" type="curve" smooth="yes"/>
      <point x="85" y="274"/>
      <point x="40" y="252"/>
      <point x="40" y="100" type="curve" smooth="yes"/>
      <point x="40" y="-134"/>
      <point x="158" y="-254"/>
      <point x="369" y="-254" type="curve" smooth="yes"/>
      <point x="559" y="-254"/>
      <point x="669" y="-179"/>
      <point x="693" y="12" type="curve"/>
      <point x="735" y="4"/>
      <point x="780" y="0"/>
      <point x="826" y="0" type="curve" smooth="yes"/>
      <point x="1070" y="0"/>
      <point x="1236" y="94"/>
      <point x="1236" y="262" type="curve" smooth="yes"/>
      <point x="1236" y="398"/>
      <point x="1131" y="471"/>
      <point x="998" y="471" type="curve" smooth="yes"/>
      <point x="867" y="471"/>
      <point x="771" y="420"/>
      <point x="685" y="343" type="curve"/>
      <point x="679" y="398"/>
      <point x="662" y="429"/>
      <point x="585" y="429" type="curve" smooth="yes"/>
      <point x="562" y="429"/>
      <point x="526" y="422"/>
      <point x="508" y="415" type="curve"/>
      <point x="515" y="355"/>
      <point x="520" y="201"/>
      <point x="520" y="85" type="curve" smooth="yes"/>
      <point x="520" y="-62"/>
      <point x="457" y="-102"/>
      <point x="378" y="-102" type="curve" smooth="yes"/>
      <point x="284" y="-102"/>
      <point x="223" y="-52"/>
    </contour>
    <contour>
      <point x="1053" y="258" type="curve"/>
      <point x="1053" y="183"/>
      <point x="940" y="146"/>
      <point x="819" y="146" type="curve" smooth="yes"/>
      <point x="767" y="146"/>
      <point x="738" y="146"/>
      <point x="694" y="155" type="curve"/>
      <point x="766" y="251"/>
      <point x="877" y="324"/>
      <point x="965" y="324" type="curve" smooth="yes"/>
      <point x="1013" y="324"/>
      <point x="1053" y="306"/>
    </contour>
  </outline>
</glyph>
<glyph name="Tatweel.ur" format="1">
  <advance width="321"/>
  <unicode hex="0640"/>
  <outline>
    <contour>
      <point x="358" y="0" type="line"/>
      <point x="367" y="13"/>
      <point x="376" y="41"/>
      <point x="376" y="68" type="curve" smooth="yes"/>
      <point x="376" y="99"/>
      <point x="369" y="126"/>
      <point x="357" y="140" type="curve"/>
      <point x="-3" y="140" type="line"/>
      <point x="-8" y="123"/>
      <point x="-10" y="107"/>
      <point x="-10" y="90" type="curve" smooth="yes"/>
      <point x="-10" y="51"/>
      <point x="8" y="17"/>
      <point x="33" y="0" type="curve"/>
    </contour>
  </outline>
</glyph>
<glyph name="Feh.ur" format="1">
  <advance width="995"/>
  <unicode hex="0641"/>
  <outline>
    <contour>
      <point x="465" y="216" type="curve"/>
      <point x="465" y="192"/>
      <point x="466" y="167"/>
      <point x="471" y="140" type="curve"/>
      <point x="412" y="140" type="line" smooth="yes"/>
      <point x="257" y="140"/>
      <point x="218" y="188"/>
      <point x="218" y="326" type="curve" smooth="yes"/>
      <point x="218" y="373" type="line"/>
      <point x="203" y="380"/>
      <point x="172" y="387"/>
      <point x="140" y="387" type="curve" smooth="yes"/>
      <point x="57" y="387"/>
      <point x="40" y="356"/>
      <point x="40" y="279" type="curve" smooth="yes"/>
      <point x="40" y="70"/>
      <point x="183" y="0"/>
      <point x="384" y="0" type="curve" smooth="yes"/>
      <point x="678" y="0" type="line" smooth="yes"/>
      <point x="851" y="0"/>
      <point x="955" y="76"/>
      <point x="955" y="234" type="curve" smooth="yes"/>
      <point x="955" y="377"/>
      <point x="855" y="463"/>
      <point x="715" y="463" type="curve" smooth="yes"/>
      <point x="583" y="463"/>
      <point x="465" y="394"/>
    </contour>
    <contour>
      <point x="796" y="586" type="curve"/>
      <point x="796" y="631"/>
      <point x="766" y="662"/>
      <point x="711" y="662" type="curve" smooth="yes"/>
      <point x="664" y="662"/>
      <point x="631" y="631"/>
      <point x="631" y="586" type="curve" smooth="yes"/>
      <point x="631" y="543"/>
      <point x="664" y="510"/>
      <point x="711" y="510" type="curve" smooth="yes"/>
      <point x="766" y="510"/>
      <point x="796" y="543"/>
    </contour>
    <contour>
      <point x="776" y="236" type="curve"/>
      <point x="776" y="174"/>
      <point x="740" y="139"/>
      <point x="682" y="139" type="curve" smooth="yes"/>
      <point x="645" y="139" type="line"/>
      <point x="642" y="161"/>
      <point x="640" y="182"/>
      <point x="640" y="207" type="curve" smooth="yes"/>
      <point x="640" y="290"/>
      <point x="672" y="317"/>
      <point x="714" y="317" type="curve" smooth="yes"/>
      <point x="746" y="317"/>
      <point x="776" y="298"/>
    </contour>
  </outline>
</glyph>
<glyph name="Qaf.ur" format="1">
  <advance width="812"/>
  <unicode hex="0642"/>
  <outline>
    <contour>
      <point x="582" y="138" type="curve"/>
      <point x="566" y="135"/>
      <point x="559" y="134"/>
      <point x="545" y="134" type="curve" smooth="yes"/>
      <point x="476" y="134"/>
      <point x="441" y="159"/>
      <point x="441" y="221" type="curve" smooth="yes"/>
      <point x="441" y="287"/>
      <point x="474" y="317"/>
      <point x="518" y="317" type="curve" smooth="yes"/>
      <point x="554" y="317"/>
      <point x="586" y="294"/>
      <point x="586" y="185" type="curve" smooth="yes"/>
      <point x="586" y="168"/>
      <point x="584" y="151"/>
    </contour>
    <contour>
      <point x="340" y="591" type="curve"/>
      <point x="340" y="546"/>
      <point x="375" y="513"/>
      <point x="423" y="513" type="curve" smooth="yes"/>
      <point x="479" y="513"/>
      <point x="512" y="546"/>
      <point x="512" y="591" type="curve" smooth="yes"/>
      <point x="512" y="636"/>
      <point x="479" y="668"/>
      <point x="423" y="668" type="curve" smooth="yes"/>
      <point x="375" y="668"/>
      <point x="340" y="636"/>
    </contour>
    <contour>
      <point x="533" y="591" type="curve"/>
      <point x="533" y="546"/>
      <point x="565" y="513"/>
      <point x="620" y="513" type="curve" smooth="yes"/>
      <point x="668" y="513"/>
      <point x="703" y="546"/>
      <point x="703" y="591" type="curve" smooth="yes"/>
      <point x="703" y="636"/>
      <point x="668" y="668"/>
      <point x="620" y="668" type="curve" smooth="yes"/>
      <point x="565" y="668"/>
      <point x="533" y="636"/>
    </contour>
    <contour>
      <point x="370" y="-239" type="curve"/>
      <point x="596" y="-239"/>
      <point x="762" y="-144"/>
      <point x="762" y="162" type="curve" smooth="yes"/>
      <point x="762" y="356"/>
      <point x="670" y="463"/>
      <point x="515" y="463" type="curve" smooth="yes"/>
      <point x="373" y="463"/>
      <point x="265" y="371"/>
      <point x="265" y="214" type="curve" smooth="yes"/>
      <point x="265" y="64"/>
      <point x="376" y="0"/>
      <point x="525" y="0" type="curve"/>
      <point x="525" y="0"/>
      <point x="543" y="0"/>
      <point x="574" y="2" type="curve"/>
      <point x="554" y="-53"/>
      <point x="490" y="-99"/>
      <point x="390" y="-99" type="curve"/>
      <point x="272" y="-99"/>
      <point x="208" y="-54"/>
      <point x="208" y="87" type="curve" smooth="yes"/>
      <point x="208" y="138" type="line"/>
      <point x="191" y="143"/>
      <point x="163" y="148"/>
      <point x="137" y="148" type="curve" smooth="yes"/>
      <point x="59" y="148"/>
      <point x="30" y="117"/>
      <point x="30" y="40" type="curve" smooth="yes"/>
      <point x="30" y="-148"/>
      <point x="171" y="-239"/>
    </contour>
  </outline>
</glyph>
<glyph name="Kaf.ar" format="1">
  <advance width="0"/>
  <unicode hex="0643"/>
  <outline>
    <contour>
      <point x="555" y="262" type="curve"/>
      <point x="555" y="531" type="line" smooth="yes"/>
      <point x="555" y="596"/>
      <point x="514" y="608"/>
      <point x="459" y="608" type="curve" smooth="yes"/>
      <point x="429" y="608"/>
      <point x="394" y="602"/>
      <point x="379" y="600" type="curve"/>
      <point x="379" y="269" type="line" smooth="yes"/>
      <point x="379" y="179"/>
      <point x="348" y="140"/>
      <point x="278" y="140" type="curve" smooth="yes"/>
      <point x="58" y="140" type="line"/>
      <point x="50" y="124"/>
      <point x="40" y="99"/>
      <point x="40" y="71" type="curve" smooth="yes"/>
      <point x="40" y="21"/>
      <point x="65" y="0"/>
      <point x="101" y="0" type="curve" smooth="yes"/>
      <point x="283" y="0" type="line" smooth="yes"/>
      <point x="460" y="0"/>
      <point x="555" y="70"/>
    </contour>
    <contour>
      <point x="201" y="398" type="curve" smooth="yes"/>
      <point x="201" y="425"/>
      <point x="238" y="426"/>
      <point x="260" y="426" type="curve"/>
      <point x="263" y="431"/>
      <point x="264" y="437"/>
      <point x="264" y="443" type="curve" smooth="yes"/>
      <point x="264" y="479"/>
      <point x="234" y="492"/>
      <point x="207" y="492" type="curve" smooth="yes"/>
      <point x="157" y="492"/>
      <point x="95" y="458"/>
      <point x="95" y="400" type="curve" smooth="yes"/>
      <point x="95" y="357"/>
      <point x="126" y="324"/>
      <point x="181" y="318" type="curve"/>
      <point x="127" y="293" type="line" smooth="yes"/>
      <point x="110" y="285"/>
      <point x="103" y="274"/>
      <point x="103" y="255" type="curve" smooth="yes"/>
      <point x="103" y="239"/>
      <point x="117" y="223"/>
      <point x="130" y="215" type="curve"/>
      <point x="272" y="279" type="line" smooth="yes"/>
      <point x="295" y="290"/>
      <point x="311" y="303"/>
      <point x="312" y="321" type="curve"/>
      <point x="312" y="339"/>
      <point x="303" y="351"/>
      <point x="295" y="358" type="curve"/>
      <point x="288" y="358"/>
      <point x="281" y="357"/>
      <point x="275" y="357" type="curve" smooth="yes"/>
      <point x="218" y="357"/>
      <point x="201" y="375"/>
    </contour>
  </outline>
</glyph>
<glyph name="Noon.ur" format="1">
  <advance width="749"/>
  <unicode hex="0646"/>
  <outline>
    <contour>
      <point x="223" y="135" type="curve"/>
      <point x="223" y="164"/>
      <point x="224" y="237"/>
      <point x="225" y="263" type="curve"/>
      <point x="206" y="270"/>
      <point x="178" y="274"/>
      <point x="154" y="274" type="curve" smooth="yes"/>
      <point x="85" y="274"/>
      <point x="40" y="252"/>
      <point x="40" y="100" type="curve"/>
      <point x="40" y="-134"/>
      <point x="158" y="-254"/>
      <point x="369" y="-254" type="curve" smooth="yes"/>
      <point x="586" y="-254"/>
      <point x="699" y="-156"/>
      <point x="699" y="101" type="curve" smooth="yes"/>
      <point x="699" y="144"/>
      <point x="698" y="224"/>
      <point x="694" y="288" type="curve" smooth="yes"/>
      <point x="688" y="378"/>
      <point x="685" y="429"/>
      <point x="585" y="429" type="curve" smooth="yes"/>
      <point x="562" y="429"/>
      <point x="526" y="422"/>
      <point x="508" y="415" type="curve"/>
      <point x="515" y="355"/>
      <point x="520" y="201"/>
      <point x="520" y="85" type="curve" smooth="yes"/>
      <point x="520" y="-62"/>
      <point x="457" y="-102"/>
      <point x="378" y="-102" type="curve" smooth="yes"/>
      <point x="284" y="-102"/>
      <point x="223" y="-52"/>
    </contour>
    <contour>
      <point x="351" y="321" type="curve"/>
      <point x="402" y="321"/>
      <point x="433" y="354"/>
      <point x="433" y="397" type="curve" smooth="yes"/>
      <point x="433" y="442"/>
      <point x="398" y="474"/>
      <point x="351" y="474" type="curve" smooth="yes"/>
      <point x="305" y="474"/>
      <point x="269" y="442"/>
      <point x="269" y="397" type="curve" smooth="yes"/>
      <point x="269" y="354"/>
      <point x="302" y="321"/>
    </contour>
  </outline>
</glyph>
<glyph name="Fathatan.ur" format="1">
  <advance width="0"/>
  <unicode hex="064B"/>
  <outline>
    <contour>
      <point x="92" y="558" type="line"/>
      <point x="105" y="560"/>
      <point x="109" y="573"/>
      <point x="109" y="583" type="curve" smooth="yes"/>
      <point x="109" y="594"/>
      <point x="99" y="608"/>
      <point x="95" y="611" type="curve"/>
      <point x="-97" y="584" type="line" smooth="yes"/>
      <point x="-106" y="583"/>
      <point x="-116" y="573"/>
      <point x="-116" y="561" type="curve" smooth="yes"/>
      <point x="-116" y="547"/>
      <point x="-107" y="536"/>
      <point x="-101" y="531" type="curve"/>
    </contour>
    <contour>
      <point x="92" y="474" type="line"/>
      <point x="105" y="476"/>
      <point x="109" y="489"/>
      <point x="109" y="499" type="curve" smooth="yes"/>
      <point x="109" y="510"/>
      <point x="99" y="524"/>
      <point x="95" y="527" type="curve"/>
      <point x="-97" y="500" type="line" smooth="yes"/>
      <point x="-106" y="499"/>
      <point x="-116" y="489"/>
      <point x="-116" y="477" type="curve" smooth="yes"/>
      <point x="-116" y="463"/>
      <point x="-107" y="452"/>
      <point x="-101" y="447" type="curve"/>
    </contour>
  </outline>
</glyph>
<glyph name="Kasratan.ur" format="1">
  <advance width="0"/>
  <unicode hex="064D"/>
  <outline>
    <contour>
      <point x="92" y="-132" type="line"/>
      <point x="105" y="-130"/>
      <point x="109" y="-117"/>
      <point x="109" y="-107" type="curve" smooth="yes"/>
      <point x="109" y="-96"/>
      <point x="99" y="-82"/>
      <point x="95" y="-79" type="curve"/>
      <point x="-97" y="-106" type="line" smooth="yes"/>
      <point x="-106" y="-107"/>
      <point x="-116" y="-117"/>
      <point x="-116" y="-129" type="curve" smooth="yes"/>
      <point x="-116" y="-143"/>
      <point x="-107" y="-154"/>
      <point x="-101" y="-159" type="curve"/>
    </contour>
    <contour>
      <point x="92" y="-216" type="line"/>
      <point x="105" y="-214"/>
      <point x="109" y="-201"/>
      <point x="109" y="-191" type="curve" smooth="yes"/>
      <point x="109" y="-180"/>
      <point x="99" y="-166"/>
      <point x="95" y="-163" type="curve"/>
      <point x="-97" y="-190" type="line" smooth="yes"/>
      <point x="-106" y="-191"/>
      <point x="-116" y="-201"/>
      <point x="-116" y="-213" type="curve" smooth="yes"/>
      <point x="-116" y="-227"/>
      <point x="-107" y="-238"/>
      <point x="-101" y="-243" type="curve"/>
    </contour>
  </outline>
</glyph>
<glyph name="Pesh.ur" format="1">
  <advance width="0"/>
  <unicode hex="064F"/>
  <outline>
    <contour>
      <point x="-99" y="502" type="curve"/>
      <point x="-100" y="495"/>
      <point x="-101" y="488"/>
      <point x="-101" y="480" type="curve" smooth="yes"/>
      <point x="-101" y="466"/>
      <point x="-93" y="452"/>
      <point x="-72" y="452" type="curve" smooth="yes"/>
      <point x="-48" y="452"/>
      <point x="-20" y="456"/>
      <point x="10" y="462" type="curve" smooth="yes"/>
      <point x="75" y="475"/>
      <point x="115" y="502"/>
      <point x="115" y="556" type="curve" smooth="yes"/>
      <point x="115" y="597"/>
      <point x="91" y="635"/>
      <point x="33" y="635" type="curve" smooth="yes"/>
      <point x="-16" y="635"/>
      <point x="-48" y="604"/>
      <point x="-48" y="554" type="curve" smooth="yes"/>
      <point x="-48" y="534"/>
      <point x="-43" y="518"/>
      <point x="-36" y="507" type="curve"/>
      <point x="-58" y="504"/>
      <point x="-76" y="503"/>
    </contour>
    <contour>
      <point x="20" y="519" type="curve"/>
      <point x="12" y="528"/>
      <point x="9" y="541"/>
      <point x="9" y="551" type="curve" smooth="yes"/>
      <point x="9" y="572"/>
      <point x="21" y="581"/>
      <point x="35" y="581" type="curve" smooth="yes"/>
      <point x="49" y="581"/>
      <point x="57" y="570"/>
      <point x="57" y="555" type="curve"/>
      <point x="56" y="530"/>
      <point x="37" y="522"/>
    </contour>
  </outline>
</glyph>
<glyph name="Zer.ur" format="1">
  <advance width="0"/>
  <unicode hex="0650"/>
  <outline>
    <contour>
      <point x="87" y="-139" type="line" smooth="yes"/>
      <point x="103" y="-137"/>
      <point x="108" y="-121"/>
      <point x="108" y="-109" type="curve" smooth="yes"/>
      <point x="108" y="-96"/>
      <point x="96" y="-79"/>
      <point x="91" y="-75" type="curve"/>
      <point x="-77" y="-100" type="line"/>
      <point x="-88" y="-101"/>
      <point x="-100" y="-113"/>
      <point x="-100" y="-128" type="curve" smooth="yes"/>
      <point x="-100" y="-145"/>
      <point x="-89" y="-158"/>
      <point x="-82" y="-164" type="curve"/>
    </contour>
  </outline>
</glyph>
<glyph name="Tashdid.ur" format="1">
  <advance width="0"/>
  <unicode hex="0651"/>
  <outline>
    <contour>
      <point x="-1" y="475" type="curve"/>
      <point x="11" y="463"/>
      <point x="31" y="452"/>
      <point x="60" y="452" type="curve" smooth="yes"/>
      <point x="115" y="452"/>
      <point x="145" y="476"/>
      <point x="145" y="536" type="curve" smooth="yes"/>
      <point x="145" y="563" type="line" smooth="yes"/>
      <point x="145" y="582"/>
      <point x="137" y="601"/>
      <point x="106" y="601" type="curve" smooth="yes"/>
      <point x="91" y="601"/>
      <point x="78" y="598"/>
      <point x="73" y="596" type="curve"/>
      <point x="73" y="533" type="line" smooth="yes"/>
      <point x="73" y="517"/>
      <point x="64" y="511"/>
      <point x="51" y="511" type="curve" smooth="yes"/>
      <point x="40" y="511"/>
      <point x="33" y="516"/>
      <point x="33" y="529" type="curve" smooth="yes"/>
      <point x="33" y="585" type="line"/>
      <point x="29" y="590"/>
      <point x="7" y="592"/>
      <point x="-1" y="592" type="curve" smooth="yes"/>
      <point x="-8" y="592"/>
      <point x="-30" y="590"/>
      <point x="-34" y="585" type="curve"/>
      <point x="-34" y="529" type="line" smooth="yes"/>
      <point x="-34" y="516"/>
      <point x="-41" y="511"/>
      <point x="-52" y="511" type="curve" smooth="yes"/>
      <point x="-65" y="511"/>
      <point x="-73" y="517"/>
      <point x="-73" y="533" type="curve" smooth="yes"/>
      <point x="-73" y="596" type="line"/>
      <point x="-82" y="599"/>
      <point x="-92" y="601"/>
      <point x="-107" y="601" type="curve" smooth="yes"/>
      <point x="-138" y="601"/>
      <point x="-146" y="582"/>
      <point x="-146" y="563" type="curve" smooth="yes"/>
      <point x="-146" y="536" type="line" smooth="yes"/>
      <point x="-146" y="476"/>
      <point x="-116" y="452"/>
      <point x="-61" y="452" type="curve" smooth="yes"/>
      <point x="-32" y="452"/>
      <point x="-12" y="463"/>
    </contour>
  </outline>
</glyph>
<glyph name="MaddaAbove.ur" format="1">
  <advance width="0"/>
  <unicode hex="0653"/>
  <outline>
    <contour>
      <point x="55" y="548" type="curve" smooth="yes"/>
      <point x="22" y="548"/>
      <point x="-10" y="591"/>
      <point x="-57" y="591" type="curve" smooth="yes"/>
      <point x="-93" y="591"/>
      <point x="-160" y="547"/>
      <point x="-160" y="509" type="curve" smooth="yes"/>
      <point x="-160" y="479"/>
      <point x="-133" y="457"/>
      <point x="-101" y="452" type="curve"/>
      <point x="-84" y="469"/>
      <point x="-66" y="485"/>
      <point x="-47" y="495" type="curve"/>
      <point x="-14" y="472"/>
      <point x="18" y="454"/>
      <point x="69" y="454" type="curve" smooth="yes"/>
      <point x="142" y="454"/>
      <point x="169" y="497"/>
      <point x="169" y="530" type="curve" smooth="yes"/>
      <point x="169" y="564"/>
      <point x="150" y="584"/>
      <point x="112" y="584" type="curve" smooth="yes"/>
      <point x="106" y="584" type="line"/>
      <point x="90" y="557"/>
      <point x="78" y="548"/>
    </contour>
  </outline>
</glyph>
<glyph name="UltaPesh.ur" format="1">
  <advance width="0"/>
  <unicode hex="0657"/>
  <outline>
    <contour>
      <point x="119" y="584" type="curve"/>
      <point x="120" y="591"/>
      <point x="121" y="598"/>
      <point x="121" y="606" type="curve" smooth="yes"/>
      <point x="121" y="620"/>
      <point x="113" y="634"/>
      <point x="92" y="634" type="curve" smooth="yes"/>
      <point x="68" y="634"/>
      <point x="40" y="630"/>
      <point x="10" y="624" type="curve" smooth="yes"/>
      <point x="-55" y="611"/>
      <point x="-95" y="584"/>
      <point x="-95" y="530" type="curve" smooth="yes"/>
      <point x="-95" y="489"/>
      <point x="-71" y="451"/>
      <point x="-13" y="451" type="curve" smooth="yes"/>
      <point x="36" y="451"/>
      <point x="68" y="482"/>
      <point x="68" y="532" type="curve" smooth="yes"/>
      <point x="68" y="552"/>
      <point x="63" y="568"/>
      <point x="56" y="579" type="curve"/>
      <point x="78" y="582"/>
      <point x="96" y="583"/>
    </contour>
    <contour>
      <point x="0" y="567" type="curve"/>
      <point x="8" y="558"/>
      <point x="11" y="545"/>
      <point x="11" y="535" type="curve" smooth="yes"/>
      <point x="11" y="514"/>
      <point x="-1" y="505"/>
      <point x="-15" y="505" type="curve" smooth="yes"/>
      <point x="-29" y="505"/>
      <point x="-37" y="516"/>
      <point x="-37" y="531" type="curve"/>
      <point x="-36" y="556"/>
      <point x="-17" y="564"/>
    </contour>
  </outline>
</glyph>
<glyph name="Zero.ar" format="1">
  <advance width="248"/>
  <unicode hex="0660"/>
  <outline>
    <contour>
      <point x="218" y="303" type="curve" smooth="yes"/>
      <point x="218" y="357"/>
      <point x="182" y="395"/>
      <point x="124" y="395" type="curve" smooth="yes"/>
      <point x="65" y="395"/>
      <point x="30" y="357"/>
      <point x="30" y="303" type="curve" smooth="yes"/>
      <point x="30" y="249"/>
      <point x="65" y="210"/>
      <point x="124" y="210" type="curve" smooth="yes"/>
      <point x="182" y="210"/>
      <point x="218" y="249"/>
    </contour>
  </outline>
</glyph>
<glyph name="Three.ar" format="1">
  <advance width="763"/>
  <unicode hex="0663"/>
  <outline>
    <contour>
      <point x="249" y="540" type="line" smooth="yes"/>
      <point x="249" y="608"/>
      <point x="207" y="620"/>
      <point x="148" y="620" type="curve" smooth="yes"/>
      <point x="118" y="620"/>
      <point x="80" y="614"/>
      <point x="65" y="612" type="curve"/>
      <point x="65" y="71" type="line" smooth="yes"/>
      <point x="65" y="5"/>
      <point x="107" y="-10"/>
      <point x="166" y="-10" type="curve" smooth="yes"/>
      <point x="196" y="-10"/>
      <point x="234" y="-4"/>
      <point x="249" y="0" type="curve"/>
      <point x="249" y="323" type="line"/>
      <point x="263" y="318"/>
      <point x="280" y="315"/>
      <point x="300" y="315" type="curve" smooth="yes"/>
      <point x="357" y="315"/>
      <point x="400" y="336"/>
      <point x="423" y="359" type="curve"/>
      <point x="458" y="327"/>
      <point x="496" y="315"/>
      <point x="545" y="315" type="curve" smooth="yes"/>
      <point x="682" y="315"/>
      <point x="743" y="403"/>
      <point x="743" y="514" type="curve" smooth="yes"/>
      <point x="743" y="595"/>
      <point x="705" y="620"/>
      <point x="643" y="620" type="curve" smooth="yes"/>
      <point x="625" y="620"/>
      <point x="590" y="617"/>
      <point x="570" y="611" type="curve"/>
      <point x="570" y="533" type="line" smooth="yes"/>
      <point x="570" y="479"/>
      <point x="549" y="455"/>
      <point x="502" y="455" type="curve" smooth="yes"/>
      <point x="494" y="455"/>
      <point x="478" y="457"/>
      <point x="472" y="462" type="curve"/>
      <point x="474" y="477"/>
      <point x="477" y="502"/>
      <point x="477" y="533" type="curve" smooth="yes"/>
      <point x="477" y="604" type="line"/>
      <point x="463" y="613"/>
      <point x="435" y="620"/>
      <point x="407" y="620" type="curve" smooth="yes"/>
      <point x="380" y="620"/>
      <point x="350" y="613"/>
      <point x="334" y="604" type="curve"/>
      <point x="334" y="524" type="line" smooth="yes"/>
      <point x="334" y="486"/>
      <point x="309" y="465"/>
      <point x="273" y="465" type="curve" smooth="yes"/>
      <point x="263" y="465"/>
      <point x="255" y="466"/>
      <point x="249" y="469" type="curve"/>
    </contour>
  </outline>
</glyph>
<glyph name="Seven.ar" format="1">
  <advance width="658"/>
  <unicode hex="0667"/>
  <outline>
    <contour>
      <point x="40" y="129" type="curve" smooth="yes"/>
      <point x="40" y="45"/>
      <point x="78" y="15"/>
      <point x="110" y="0" type="curve"/>
      <point x="567" y="0" type="line" smooth="yes"/>
      <point x="603" y="0"/>
      <point x="628" y="21"/>
      <point x="628" y="71" type="curve" smooth="yes"/>
      <point x="628" y="99"/>
      <point x="618" y="124"/>
      <point x="610" y="140" type="curve"/>
      <point x="242" y="140" type="line"/>
      <point x="305" y="239"/>
      <point x="462" y="421"/>
      <point x="565" y="508" type="curve"/>
      <point x="557" y="532"/>
      <point x="549" y="548"/>
      <point x="537" y="568" type="curve" smooth="yes"/>
      <point x="517" y="600"/>
      <point x="489" y="621"/>
      <point x="459" y="621" type="curve" smooth="yes"/>
      <point x="436" y="621"/>
      <point x="416" y="613"/>
      <point x="397" y="597" type="curve" smooth="yes"/>
      <point x="285" y="507"/>
      <point x="40" y="198"/>
    </contour>
  </outline>
</glyph>
<glyph name="Percent.ur" format="1">
  <advance width="540"/>
  <unicode hex="066A"/>
  <outline>
    <contour>
      <point x="67" y="115" type="line"/>
      <point x="50" y="89"/>
      <point x="46" y="69"/>
      <point x="46" y="53" type="curve" smooth="yes"/>
      <point x="46" y="22"/>
      <point x="83" y="0"/>
      <point x="126" y="-7" type="curve"/>
      <point x="465" y="485" type="line" smooth="yes"/>
      <point x="482" y="509"/>
      <point x="494" y="532"/>
      <point x="494" y="553" type="curve"/>
      <point x="492" y="584"/>
      <point x="450" y="601"/>
      <point x="405" y="608" type="curve"/>
    </contour>
    <contour>
      <point x="220" y="510" type="curve" smooth="yes"/>
      <point x="220" y="562"/>
      <point x="185" y="598"/>
      <point x="130" y="598" type="curve" smooth="yes"/>
      <point x="73" y="598"/>
      <point x="40" y="562"/>
      <point x="40" y="510" type="curve" smooth="yes"/>
      <point x="40" y="458"/>
      <point x="73" y="421"/>
      <point x="130" y="421" type="curve" smooth="yes"/>
      <point x="185" y="421"/>
      <point x="220" y="458"/>
    </contour>
    <contour>
      <point x="500" y="92" type="curve" smooth="yes"/>
      <point x="500" y="144"/>
      <point x="465" y="180"/>
      <point x="410" y="180" type="curve" smooth="yes"/>
      <point x="353" y="180"/>
      <point x="320" y="144"/>
      <point x="320" y="92" type="curve" smooth="yes"/>
      <point x="320" y="40"/>
      <point x="353" y="3"/>
      <point x="410" y="3" type="curve" smooth="yes"/>
      <point x="465" y="3"/>
      <point x="500" y="40"/>
    </contour>
  </outline>
</glyph>
<glyph name="DecimalSeparater.ur" format="1">
  <advance width="286"/>
  <unicode hex="066B"/>
  <outline>
    <contour>
      <point x="179" y="-73" type="curve" smooth="yes"/>
      <point x="213" y="-29"/>
      <point x="249" y="59"/>
      <point x="249" y="114" type="curve" smooth="yes"/>
      <point x="249" y="162"/>
      <point x="212" y="178"/>
      <point x="171" y="178" type="curve" smooth="yes"/>
      <point x="139" y="178"/>
      <point x="105" y="168"/>
      <point x="82" y="156" type="curve"/>
      <point x="69" y="86"/>
      <point x="49" y="-8"/>
      <point x="20" y="-90" type="curve"/>
      <point x="41" y="-107"/>
      <point x="66" y="-115"/>
      <point x="95" y="-115" type="curve" smooth="yes"/>
      <point x="132" y="-115"/>
      <point x="157" y="-102"/>
    </contour>
  </outline>
</glyph>
<glyph name="ThousandsSeparater.ur" format="1">
  <advance width="234"/>
  <unicode hex="066C"/>
  <outline>
    <contour>
      <point x="160" y="422" type="curve" smooth="yes"/>
      <point x="188" y="463"/>
      <point x="212" y="545"/>
      <point x="212" y="597" type="curve" smooth="yes"/>
      <point x="212" y="646"/>
      <point x="170" y="661"/>
      <point x="127" y="661" type="curve" smooth="yes"/>
      <point x="99" y="661"/>
      <point x="66" y="649"/>
      <point x="47" y="639" type="curve"/>
      <point x="44" y="570"/>
      <point x="36" y="485"/>
      <point x="30" y="404" type="curve"/>
      <point x="50" y="395"/>
      <point x="71" y="389"/>
      <point x="96" y="389" type="curve" smooth="yes"/>
      <point x="126" y="389"/>
      <point x="145" y="400"/>
    </contour>
  </outline>
</glyph>
<glyph name="AlefSuperscript.ur" format="1">
  <advance width="0"/>
  <unicode hex="0670"/>
  <outline>
    <contour>
      <point x="28" y="569" type="line" smooth="yes"/>
      <point x="28" y="589"/>
      <point x="14" y="593"/>
      <point x="-2" y="593" type="curve" smooth="yes"/>
      <point x="-13" y="593"/>
      <point x="-23" y="591"/>
      <point x="-29" y="591" type="curve"/>
      <point x="-29" y="482" type="line" smooth="yes"/>
      <point x="-29" y="463"/>
      <point x="-16" y="458"/>
      <point x="1" y="458" type="curve" smooth="yes"/>
      <point x="12" y="458"/>
      <point x="23" y="460"/>
      <point x="28" y="460" type="curve"/>
    </contour>
  </outline>
</glyph>
<glyph name="Tteh.ur" format="1">
  <advance width="946"/>
  <unicode hex="0679"/>
  <outline>
    <contour>
      <point x="424" y="140" type="line"/>
      <point x="259" y="140"/>
      <point x="218" y="185"/>
      <point x="218" y="326" type="curve" smooth="yes"/>
      <point x="218" y="377" type="line"/>
      <point x="201" y="382"/>
      <point x="173" y="387"/>
      <point x="147" y="387" type="curve" smooth="yes"/>
      <point x="69" y="387"/>
      <point x="40" y="356"/>
      <point x="40" y="279" type="curve" smooth="yes"/>
      <point x="40" y="70"/>
      <point x="183" y="0"/>
      <point x="384" y="0" type="curve" smooth="yes"/>
      <point x="553" y="0" type="line" smooth="yes"/>
      <point x="809" y="0"/>
      <point x="906" y="102"/>
      <point x="906" y="289" type="curve" smooth="yes"/>
      <point x="906" y="409"/>
      <point x="871" y="429"/>
      <point x="798" y="429" type="curve" smooth="yes"/>
      <point x="772" y="429"/>
      <point x="747" y="425"/>
      <point x="722" y="419" type="curve"/>
      <point x="726" y="379"/>
      <point x="728" y="357"/>
      <point x="728" y="306" type="curve" smooth="yes"/>
      <point x="728" y="179"/>
      <point x="665" y="140"/>
      <point x="510" y="140" type="curve" smooth="yes"/>
    </contour>
    <contour>
      <point x="351" y="467" type="curve"/>
      <point x="334" y="469"/>
      <point x="318" y="472"/>
      <point x="309" y="474" type="curve"/>
      <point x="302" y="464"/>
      <point x="296" y="446"/>
      <point x="296" y="432" type="curve" smooth="yes"/>
      <point x="296" y="400"/>
      <point x="311" y="394"/>
      <point x="330" y="387" type="curve" smooth="yes"/>
      <point x="360" y="376"/>
      <point x="425" y="368"/>
      <point x="457" y="368" type="curve" smooth="yes"/>
      <point x="568" y="368"/>
      <point x="627" y="407"/>
      <point x="627" y="475" type="curve" smooth="yes"/>
      <point x="627" y="527"/>
      <point x="587" y="566"/>
      <point x="530" y="566" type="curve" smooth="yes"/>
      <point x="499" y="566"/>
      <point x="475" y="561"/>
      <point x="449" y="546" type="curve"/>
      <point x="449" y="588" type="line" smooth="yes"/>
      <point x="449" y="625"/>
      <point x="417" y="631"/>
      <point x="391" y="631" type="curve" smooth="yes"/>
      <point x="377" y="631"/>
      <point x="367" y="630"/>
      <point x="352" y="627" type="curve"/>
      <point x="352" y="620"/>
    </contour>
    <contour>
      <point x="528" y="473" type="curve"/>
      <point x="528" y="455"/>
      <point x="501" y="447"/>
      <point x="461" y="447" type="curve" smooth="yes"/>
      <point x="453" y="447"/>
      <point x="440" y="448"/>
      <point x="434" y="448" type="curve"/>
      <point x="449" y="471"/>
      <point x="479" y="490"/>
      <point x="505" y="490" type="curve" smooth="yes"/>
      <point x="519" y="490"/>
      <point x="528" y="485"/>
    </contour>
  </outline>
</glyph>
<glyph name="Tcheh.ur" format="1">
  <advance width="618"/>
  <unicode hex="0686"/>
  <outline>
    <contour>
      <point x="535" y="0" type="line"/>
      <point x="553" y="30"/>
      <point x="566" y="73"/>
      <point x="566" y="123" type="curve" smooth="yes"/>
      <point x="566" y="308"/>
      <point x="407" y="469"/>
      <point x="234" y="469" type="curve" smooth="yes"/>
      <point x="161" y="469"/>
      <point x="121" y="438"/>
      <point x="121" y="386" type="curve" smooth="yes"/>
      <point x="121" y="355"/>
      <point x="130" y="334"/>
      <point x="139" y="319" type="curve"/>
      <point x="161" y="319" type="line" smooth="yes"/>
      <point x="277" y="319"/>
      <point x="379" y="247"/>
      <point x="381" y="140" type="curve"/>
      <point x="296" y="140" type="line"/>
      <point x="115" y="140"/>
      <point x="20" y="45"/>
      <point x="20" y="-90" type="curve" smooth="yes"/>
      <point x="20" y="-232"/>
      <point x="114" y="-295"/>
      <point x="183" y="-295" type="curve" smooth="yes"/>
      <point x="245" y="-295"/>
      <point x="272" y="-253"/>
      <point x="272" y="-206" type="curve"/>
      <point x="239" y="-183"/>
      <point x="202" y="-154"/>
      <point x="202" y="-88" type="curve" smooth="yes"/>
      <point x="202" y="-35"/>
      <point x="239" y="0"/>
      <point x="310" y="0" type="curve"/>
    </contour>
    <contour>
      <point x="542" y="-54" type="curve" smooth="yes"/>
      <point x="493" y="-54"/>
      <point x="464" y="-86"/>
      <point x="464" y="-128" type="curve" smooth="yes"/>
      <point x="464" y="-172"/>
      <point x="497" y="-203"/>
      <point x="542" y="-203" type="curve" smooth="yes"/>
      <point x="586" y="-203"/>
      <point x="620" y="-172"/>
      <point x="620" y="-128" type="curve" smooth="yes"/>
      <point x="620" y="-86"/>
      <point x="589" y="-54"/>
    </contour>
    <contour>
      <point x="358" y="-54" type="curve" smooth="yes"/>
      <point x="309" y="-54"/>
      <point x="280" y="-86"/>
      <point x="280" y="-128" type="curve" smooth="yes"/>
      <point x="280" y="-172"/>
      <point x="313" y="-203"/>
      <point x="358" y="-203" type="curve" smooth="yes"/>
      <point x="402" y="-203"/>
      <point x="436" y="-172"/>
      <point x="436" y="-128" type="curve" smooth="yes"/>
      <point x="436" y="-86"/>
      <point x="405" y="-54"/>
    </contour>
    <contour>
      <point x="451" y="-205" type="curve" smooth="yes"/>
      <point x="404" y="-205"/>
      <point x="374" y="-236"/>
      <point x="374" y="-274" type="curve" smooth="yes"/>
      <point x="374" y="-316"/>
      <point x="408" y="-344"/>
      <point x="451" y="-344" type="curve" smooth="yes"/>
      <point x="493" y="-344"/>
      <point x="528" y="-316"/>
      <point x="528" y="-274" type="curve" smooth="yes"/>
      <point x="528" y="-236"/>
      <point x="496" y="-205"/>
    </contour>
  </outline>
</glyph>
<glyph name="HehDochashmi.ur" format="1">
  <advance width="852"/>
  <unicode hex="06BE"/>
  <outline>
    <contour>
      <point x="540" y="0" type="line" smooth="yes"/>
      <point x="693" y="0"/>
      <point x="806" y="81"/>
      <point x="806" y="240" type="curve" smooth="yes"/>
      <point x="806" y="443"/>
      <point x="610" y="584"/>
      <point x="438" y="584" type="curve" smooth="yes"/>
      <point x="378" y="584"/>
      <point x="342" y="549"/>
      <point x="342" y="487" type="curve" smooth="yes"/>
      <point x="342" y="468"/>
      <point x="343" y="462"/>
      <point x="345" y="451" type="curve"/>
      <point x="486" y="440"/>
      <point x="630" y="363"/>
      <point x="630" y="238" type="curve" smooth="yes"/>
      <point x="630" y="178"/>
      <point x="589" y="136"/>
      <point x="543" y="134" type="curve"/>
      <point x="547" y="147"/>
      <point x="554" y="170"/>
      <point x="554" y="197" type="curve" smooth="yes"/>
      <point x="554" y="300"/>
      <point x="463" y="369"/>
      <point x="348" y="369" type="curve" smooth="yes"/>
      <point x="234" y="369"/>
      <point x="163" y="299"/>
      <point x="163" y="208" type="curve" smooth="yes"/>
      <point x="163" y="176"/>
      <point x="171" y="154"/>
      <point x="178" y="140" type="curve"/>
      <point x="48" y="140" type="line"/>
      <point x="40" y="124"/>
      <point x="30" y="99"/>
      <point x="30" y="71" type="curve" smooth="yes"/>
      <point x="30" y="21"/>
      <point x="55" y="0"/>
      <point x="91" y="0" type="curve" smooth="yes"/>
    </contour>
    <contour>
      <point x="384" y="134" type="line" smooth="yes"/>
      <point x="332" y="134"/>
      <point x="311" y="159"/>
      <point x="311" y="190" type="curve" smooth="yes"/>
      <point x="311" y="218"/>
      <point x="329" y="239"/>
      <point x="356" y="239" type="curve" smooth="yes"/>
      <point x="385" y="239"/>
      <point x="407" y="220"/>
      <point x="407" y="182" type="curve" smooth="yes"/>
      <point x="407" y="165"/>
      <point x="402" y="143"/>
      <point x="398" y="134" type="curve"/>
    </contour>
  </outline>
</glyph>
<glyph name="HehYehAbove.ar" format="1">
  <advance width="562"/>
  <unicode hex="06C0"/>
  <outline>
    <contour>
      <point x="372" y="461" type="curve"/>
      <point x="357" y="462"/>
      <point x="336" y="462"/>
      <point x="328" y="462" type="curve" smooth="yes"/>
      <point x="178" y="462"/>
      <point x="29" y="376"/>
      <point x="29" y="209" type="curve" smooth="yes"/>
      <point x="29" y="63"/>
      <point x="145" y="-7"/>
      <point x="275" y="-7" type="curve" smooth="yes"/>
      <point x="430" y="-7"/>
      <point x="532" y="73"/>
      <point x="532" y="211" type="curve" smooth="yes"/>
      <point x="532" y="333"/>
      <point x="452" y="421"/>
    </contour>
    <contour>
      <point x="364" y="585" type="line" smooth="yes"/>
      <point x="336" y="585"/>
      <point x="324" y="597"/>
      <point x="324" y="616" type="curve" smooth="yes"/>
      <point x="324" y="638"/>
      <point x="344" y="648"/>
      <point x="363" y="648" type="curve" smooth="yes"/>
      <point x="374" y="648"/>
      <point x="384" y="646"/>
      <point x="392" y="643" type="curve"/>
      <point x="400" y="651"/>
      <point x="403" y="664"/>
      <point x="403" y="674" type="curve" smooth="yes"/>
      <point x="403" y="702"/>
      <point x="381" y="724"/>
      <point x="330" y="724" type="curve" smooth="yes"/>
      <point x="265" y="724"/>
      <point x="220" y="691"/>
      <point x="220" y="641" type="curve" smooth="yes"/>
      <point x="220" y="610"/>
      <point x="238" y="593"/>
      <point x="250" y="585" type="curve"/>
      <point x="216" y="585" type="line" smooth="yes"/>
      <point x="192" y="585"/>
      <point x="181" y="566"/>
      <point x="181" y="542" type="curve" smooth="yes"/>
      <point x="181" y="528"/>
      <point x="186" y="514"/>
      <point x="191" y="508" type="curve"/>
      <point x="366" y="508" type="line" smooth="yes"/>
      <point x="404" y="508"/>
      <point x="418" y="522"/>
      <point x="418" y="550" type="curve" smooth="yes"/>
      <point x="418" y="563"/>
      <point x="413" y="577"/>
      <point x="407" y="585" type="curve"/>
    </contour>
    <contour>
      <point x="315" y="316" type="curve"/>
      <point x="337" y="294"/>
      <point x="357" y="247"/>
      <point x="357" y="213" type="curve" smooth="yes"/>
      <point x="357" y="164"/>
      <point x="326" y="139"/>
      <point x="281" y="139" type="curve" smooth="yes"/>
      <point x="238" y="139"/>
      <point x="205" y="165"/>
      <point x="205" y="213" type="curve" smooth="yes"/>
      <point x="205" y="275"/>
      <point x="259" y="316"/>
    </contour>
  </outline>
</glyph>
<glyph name="TehMarbutaGoal.ur" format="1">
  <advance width="583"/>
  <unicode hex="06C3"/>
  <outline>
    <contour>
      <point x="326" y="316" type="curve"/>
      <point x="348" y="294"/>
      <point x="368" y="247"/>
      <point x="368" y="213" type="curve" smooth="yes"/>
      <point x="368" y="164"/>
      <point x="337" y="139"/>
      <point x="292" y="139" type="curve" smooth="yes"/>
      <point x="249" y="139"/>
      <point x="216" y="165"/>
      <point x="216" y="213" type="curve" smooth="yes"/>
      <point x="216" y="275"/>
      <point x="270" y="316"/>
    </contour>
    <contour>
      <point x="383" y="461" type="curve"/>
      <point x="368" y="462"/>
      <point x="347" y="462"/>
      <point x="339" y="462" type="curve" smooth="yes"/>
      <point x="189" y="462"/>
      <point x="40" y="376"/>
      <point x="40" y="209" type="curve" smooth="yes"/>
      <point x="40" y="63"/>
      <point x="156" y="-7"/>
      <point x="286" y="-7" type="curve" smooth="yes"/>
      <point x="441" y="-7"/>
      <point x="543" y="73"/>
      <point x="543" y="211" type="curve" smooth="yes"/>
      <point x="543" y="333"/>
      <point x="463" y="421"/>
    </contour>
    <contour>
      <point x="210" y="507" type="curve"/>
      <point x="260" y="507"/>
      <point x="290" y="540"/>
      <point x="290" y="583" type="curve" smooth="yes"/>
      <point x="290" y="628"/>
      <point x="256" y="660"/>
      <point x="210" y="660" type="curve" smooth="yes"/>
      <point x="165" y="660"/>
      <point x="130" y="628"/>
      <point x="130" y="583" type="curve" smooth="yes"/>
      <point x="130" y="540"/>
      <point x="162" y="507"/>
    </contour>
    <contour>
      <point x="399" y="507" type="curve"/>
      <point x="449" y="507"/>
      <point x="479" y="540"/>
      <point x="479" y="583" type="curve" smooth="yes"/>
      <point x="479" y="628"/>
      <point x="445" y="660"/>
      <point x="399" y="660" type="curve" smooth="yes"/>
      <point x="354" y="660"/>
      <point x="319" y="628"/>
      <point x="319" y="583" type="curve" smooth="yes"/>
      <point x="319" y="540"/>
      <point x="351" y="507"/>
    </contour>
  </outline>
</glyph>
<glyph name="YeBari.ur" format="1">
  <advance width="832"/>
  <unicode hex="06D2"/>
  <outline>
    <contour>
      <point x="740" y="0" type="line"/>
      <point x="789" y="0"/>
      <point x="802" y="29"/>
      <point x="802" y="71" type="curve" smooth="yes"/>
      <point x="802" y="97"/>
      <point x="793" y="123"/>
      <point x="784" y="140" type="curve"/>
      <point x="295" y="140" type="line" smooth="yes"/>
      <point x="249" y="140"/>
      <point x="227" y="158"/>
      <point x="227" y="193" type="curve" smooth="yes"/>
      <point x="227" y="225"/>
      <point x="250" y="245"/>
      <point x="280" y="262" type="curve" smooth="yes"/>
      <point x="457" y="360" type="line"/>
      <point x="438" y="427"/>
      <point x="417" y="463"/>
      <point x="363" y="463" type="curve" smooth="yes"/>
      <point x="343" y="463"/>
      <point x="320" y="459"/>
      <point x="286" y="440" type="curve" smooth="yes"/>
      <point x="176" y="379" type="line" smooth="yes"/>
      <point x="91" y="332"/>
      <point x="40" y="269"/>
      <point x="40" y="178" type="curve" smooth="yes"/>
      <point x="40" y="80"/>
      <point x="113" y="0"/>
      <point x="272" y="0" type="curve" smooth="yes"/>
    </contour>
  </outline>
</glyph>
<glyph name="YeBariHamzaAbove.ur" format="1">
  <advance width="832"/>
  <unicode hex="06D3"/>
  <outline>
    <contour>
      <point x="740" y="0" type="line"/>
      <point x="789" y="0"/>
      <point x="802" y="29"/>
      <point x="802" y="71" type="curve" smooth="yes"/>
      <point x="802" y="97"/>
      <point x="793" y="123"/>
      <point x="784" y="140" type="curve"/>
      <point x="295" y="140" type="line" smooth="yes"/>
      <point x="249" y="140"/>
      <point x="227" y="158"/>
      <point x="227" y="193" type="curve" smooth="yes"/>
      <point x="227" y="225"/>
      <point x="250" y="245"/>
      <point x="280" y="262" type="curve" smooth="yes"/>
      <point x="457" y="360" type="line"/>
      <point x="438" y="427"/>
      <point x="417" y="463"/>
      <point x="363" y="463" type="curve" smooth="yes"/>
      <point x="343" y="463"/>
      <point x="320" y="459"/>
      <point x="286" y="440" type="curve" smooth="yes"/>
      <point x="176" y="379" type="line" smooth="yes"/>
      <point x="91" y="332"/>
      <point x="40" y="269"/>
      <point x="40" y="178" type="curve" smooth="yes"/>
      <point x="40" y="80"/>
      <point x="113" y="0"/>
      <point x="272" y="0" type="curve" smooth="yes"/>
    </contour>
    <contour>
      <point x="335" y="621" type="curve" smooth="yes"/>
      <point x="335" y="643"/>
      <point x="355" y="653"/>
      <point x="374" y="653" type="curve" smooth="yes"/>
      <point x="385" y="653"/>
      <point x="395" y="651"/>
      <point x="403" y="648" type="curve"/>
      <point x="411" y="656"/>
      <point x="414" y="669"/>
      <point x="414" y="679" type="curve" smooth="yes"/>
      <point x="414" y="707"/>
      <point x="392" y="729"/>
      <point x="341" y="729" type="curve" smooth="yes"/>
      <point x="276" y="729"/>
      <point x="231" y="696"/>
      <point x="231" y="646" type="curve" smooth="yes"/>
      <point x="231" y="615"/>
      <point x="249" y="598"/>
      <point x="261" y="590" type="curve"/>
      <point x="227" y="590" type="line" smooth="yes"/>
      <point x="203" y="590"/>
      <point x="192" y="571"/>
      <point x="192" y="547" type="curve" smooth="yes"/>
      <point x="192" y="533"/>
      <point x="197" y="519"/>
      <point x="202" y="513" type="curve"/>
      <point x="377" y="513" type="line" smooth="yes"/>
      <point x="415" y="513"/>
      <point x="429" y="527"/>
      <point x="429" y="555" type="curve" smooth="yes"/>
      <point x="429" y="568"/>
      <point x="424" y="582"/>
      <point x="418" y="590" type="curve"/>
      <point x="371" y="590" type="line" smooth="yes"/>
      <point x="347" y="590"/>
      <point x="335" y="603"/>
    </contour>
  </outline>
</glyph>
<glyph name="One.ur" format="1">
  <advance width="311"/>
  <unicode hex="06F1"/>
  <outline>
    <contour>
      <point x="246" y="529" type="line" smooth="yes"/>
      <point x="246" y="596"/>
      <point x="204" y="608"/>
      <point x="148" y="608" type="curve" smooth="yes"/>
      <point x="117" y="608"/>
      <point x="81" y="602"/>
      <point x="65" y="600" type="curve"/>
      <point x="65" y="70" type="line" smooth="yes"/>
      <point x="65" y="5"/>
      <point x="106" y="-10"/>
      <point x="164" y="-10" type="curve" smooth="yes"/>
      <point x="195" y="-10"/>
      <point x="232" y="-4"/>
      <point x="246" y="0" type="curve"/>
    </contour>
  </outline>
</glyph>
<glyph name="Two.ur" format="1">
  <advance width="577"/>
  <unicode hex="06F2"/>
  <outline>
    <contour>
      <point x="249" y="326" type="line"/>
      <point x="266" y="319"/>
      <point x="291" y="315"/>
      <point x="320" y="315" type="curve" smooth="yes"/>
      <point x="446" y="315"/>
      <point x="557" y="387"/>
      <point x="557" y="519" type="curve" smooth="yes"/>
      <point x="557" y="592"/>
      <point x="527" y="617"/>
      <point x="457" y="617" type="curve" smooth="yes"/>
      <point x="438" y="617"/>
      <point x="407" y="613"/>
      <point x="383" y="608" type="curve"/>
      <point x="383" y="579" type="line" smooth="yes"/>
      <point x="383" y="495"/>
      <point x="341" y="466"/>
      <point x="292" y="466" type="curve" smooth="yes"/>
      <point x="273" y="466"/>
      <point x="259" y="469"/>
      <point x="249" y="474" type="curve"/>
      <point x="249" y="537" type="line" smooth="yes"/>
      <point x="249" y="600"/>
      <point x="219" y="620"/>
      <point x="148" y="620" type="curve" smooth="yes"/>
      <point x="118" y="620"/>
      <point x="80" y="614"/>
      <point x="65" y="612" type="curve"/>
      <point x="65" y="66" type="line" smooth="yes"/>
      <point x="65" y="3"/>
      <point x="108" y="-10"/>
      <point x="166" y="-10" type="curve" smooth="yes"/>
      <point x="175" y="-10" type="line"/>
      <point x="203" y="-9"/>
      <point x="235" y="-3"/>
      <point x="249" y="0" type="curve"/>
    </contour>
  </outline>
</glyph>
<glyph name="Four.ur" format="1">
  <advance width="679"/>
  <unicode hex="06F4"/>
  <outline>
    <contour>
      <point x="347" y="345" type="line"/>
      <point x="376" y="321"/>
      <point x="425" y="306"/>
      <point x="477" y="306" type="curve"/>
      <point x="648" y="468" type="line" smooth="yes"/>
      <point x="662" y="482"/>
      <point x="669" y="498"/>
      <point x="669" y="519" type="curve" smooth="yes"/>
      <point x="669" y="564"/>
      <point x="628" y="597"/>
      <point x="572" y="618" type="curve"/>
      <point x="466" y="491" type="line"/>
      <point x="454" y="556"/>
      <point x="399" y="624"/>
      <point x="283" y="624" type="curve" smooth="yes"/>
      <point x="136" y="624"/>
      <point x="60" y="517"/>
      <point x="60" y="397" type="curve" smooth="yes"/>
      <point x="60" y="71" type="line" smooth="yes"/>
      <point x="60" y="5"/>
      <point x="102" y="-10"/>
      <point x="161" y="-10" type="curve" smooth="yes"/>
      <point x="191" y="-10"/>
      <point x="229" y="-4"/>
      <point x="244" y="0" type="curve"/>
      <point x="244" y="392" type="line" smooth="yes"/>
      <point x="244" y="444"/>
      <point x="265" y="466"/>
      <point x="299" y="466" type="curve" smooth="yes"/>
      <point x="340" y="466"/>
      <point x="347" y="430"/>
      <point x="347" y="398" type="curve"/>
    </contour>
  </outline>
</glyph>
<glyph name="Nine.ur" format="1">
  <advance width="571"/>
  <unicode hex="06F9"/>
  <outline>
    <contour>
      <point x="506" y="394" type="line"/>
      <point x="506" y="558"/>
      <point x="399" y="621"/>
      <point x="278" y="621" type="curve" smooth="yes"/>
      <point x="147" y="621"/>
      <point x="40" y="544"/>
      <point x="40" y="399" type="curve" smooth="yes"/>
      <point x="40" y="267"/>
      <point x="138" y="206"/>
      <point x="262" y="206" type="curve" smooth="yes"/>
      <point x="285" y="206"/>
      <point x="310" y="209"/>
      <point x="325" y="213" type="curve"/>
      <point x="325" y="71" type="line" smooth="yes"/>
      <point x="325" y="4"/>
      <point x="365" y="-10"/>
      <point x="424" y="-10" type="curve" smooth="yes"/>
      <point x="454" y="-10"/>
      <point x="483" y="-4"/>
      <point x="506" y="0" type="curve"/>
    </contour>
    <contour>
      <point x="325" y="344" type="line"/>
      <point x="319" y="341"/>
      <point x="299" y="338"/>
      <point x="283" y="338" type="curve" smooth="yes"/>
      <point x="240" y="338"/>
      <point x="208" y="360"/>
      <point x="208" y="412" type="curve" smooth="yes"/>
      <point x="208" y="463"/>
      <point x="241" y="484"/>
      <point x="273" y="484" type="curve" smooth="yes"/>
      <point x="304" y="484"/>
      <point x="325" y="468"/>
      <point x="325" y="435" type="curve"/>
    </contour>
  </outline>
</glyph>
<glyph name="ZWNJ" format="1">
  <advance width="223"/>
  <unicode hex="200C"/>
  <outline>
    <contour>
      <point x="68" y="39" type="line" smooth="yes"/>
      <point x="68" y="5"/>
      <point x="83" y="-3"/>
      <point x="116" y="-3" type="curve" smooth="yes"/>
      <point x="129" y="-3"/>
      <point x="149" y="0"/>
      <point x="156" y="2" type="curve"/>
      <point x="156" y="333" type="line" smooth="yes"/>
      <point x="156" y="368"/>
      <point x="140" y="375"/>
      <point x="109" y="375" type="curve" smooth="yes"/>
      <point x="94" y="375"/>
      <point x="75" y="371"/>
      <point x="68" y="370" type="curve"/>
    </contour>
    <contour>
      <point x="113" y="534" type="line"/>
      <point x="72" y="579" type="line" smooth="yes"/>
      <point x="67" y="585"/>
      <point x="60" y="589"/>
      <point x="52" y="589" type="curve" smooth="yes"/>
      <point x="35" y="589"/>
      <point x="19" y="570"/>
      <point x="14" y="554" type="curve"/>
      <point x="68" y="499" type="line"/>
      <point x="27" y="455" type="line" smooth="yes"/>
      <point x="20" y="447"/>
      <point x="16" y="440"/>
      <point x="16" y="434" type="curve" smooth="yes"/>
      <point x="16" y="419"/>
      <point x="33" y="402"/>
      <point x="57" y="398" type="curve"/>
      <point x="110" y="457" type="line"/>
      <point x="146" y="413" type="line" smooth="yes"/>
      <point x="153" y="405"/>
      <point x="163" y="402"/>
      <point x="169" y="402" type="curve" smooth="yes"/>
      <point x="187" y="402"/>
      <point x="202" y="414"/>
      <point x="208" y="434" type="curve"/>
      <point x="155" y="496" type="line"/>
      <point x="188" y="531" type="line" smooth="yes"/>
      <point x="196" y="539"/>
      <point x="200" y="546"/>
      <point x="200" y="554" type="curve" smooth="yes"/>
      <point x="200" y="570"/>
      <point x="183" y="585"/>
      <point x="166" y="591" type="curve"/>
    </contour>
  </outline>
</glyph>
<glyph name="ZWJ" format="1">
  <advance width="157"/>
  <unicode hex="200D"/>
  <outline>
    <contour>
      <point x="29" y="39" type="line" smooth="yes"/>
      <point x="29" y="5"/>
      <point x="45" y="-3"/>
      <point x="77" y="-3" type="curve" smooth="yes"/>
      <point x="91" y="-3"/>
      <point x="111" y="0"/>
      <point x="118" y="2" type="curve"/>
      <point x="118" y="546" type="line" smooth="yes"/>
      <point x="118" y="580"/>
      <point x="102" y="588"/>
      <point x="71" y="588" type="curve" smooth="yes"/>
      <point x="56" y="588"/>
      <point x="37" y="584"/>
      <point x="29" y="583" type="curve"/>
    </contour>
  </outline>
</glyph>
<glyph name="RTLMark" format="1">
  <advance width="0"/>
  <unicode hex="200F"/>
  <outline>
    <contour>
      <point x="118" y="474" type="line" smooth="yes"/>
      <point x="118" y="502"/>
      <point x="105" y="508"/>
      <point x="80" y="508" type="curve" smooth="yes"/>
      <point x="68" y="508"/>
      <point x="53" y="505"/>
      <point x="47" y="504" type="curve"/>
      <point x="47" y="88" type="line"/>
      <point x="-44" y="88" type="line"/>
      <point x="-13" y="115" type="line" smooth="yes"/>
      <point x="-5" y="123"/>
      <point x="-1" y="129"/>
      <point x="-1" y="137" type="curve" smooth="yes"/>
      <point x="-1" y="154"/>
      <point x="-18" y="169"/>
      <point x="-35" y="174" type="curve"/>
      <point x="-125" y="89" type="line"/>
      <point x="-131" y="82"/>
      <point x="-134" y="73"/>
      <point x="-134" y="58" type="curve" smooth="yes"/>
      <point x="-134" y="46"/>
      <point x="-132" y="37"/>
      <point x="-128" y="29" type="curve"/>
      <point x="-55" y="-43" type="line"/>
      <point x="-48" y="-51"/>
      <point x="-38" y="-54"/>
      <point x="-29" y="-54" type="curve" smooth="yes"/>
      <point x="-11" y="-54"/>
      <point x="1" y="-42"/>
      <point x="7" y="-22" type="curve"/>
      <point x="-44" y="26" type="line"/>
      <point x="82" y="26" type="line" smooth="yes"/>
      <point x="104" y="26"/>
      <point x="118" y="36"/>
      <point x="118" y="62" type="curve" smooth="yes"/>
    </contour>
  </outline>
</glyph>
<glyph name="TashdidWithKasratan.ur" format="1">
  <advance width="0"/>
  <unicode hex="FC5F"/>
  <outline>
    <contour>
      <point x="-1" y="660" type="curve"/>
      <point x="9" y="650"/>
      <point x="26" y="641"/>
      <point x="50" y="641" type="curve" smooth="yes"/>
      <point x="96" y="641"/>
      <point x="122" y="661"/>
      <point x="122" y="711" type="curve" smooth="yes"/>
      <point x="122" y="739" type="line" smooth="yes"/>
      <point x="122" y="755"/>
      <point x="115" y="771"/>
      <point x="89" y="771" type="curve" smooth="yes"/>
      <point x="77" y="771"/>
      <point x="68" y="769"/>
      <point x="61" y="767" type="curve"/>
      <point x="61" y="709" type="line" smooth="yes"/>
      <point x="61" y="695"/>
      <point x="54" y="690"/>
      <point x="43" y="690" type="curve" smooth="yes"/>
      <point x="34" y="690"/>
      <point x="28" y="695"/>
      <point x="28" y="706" type="curve" smooth="yes"/>
      <point x="28" y="757" type="line"/>
      <point x="24" y="762"/>
      <point x="6" y="763"/>
      <point x="-1" y="763" type="curve" smooth="yes"/>
      <point x="-7" y="763"/>
      <point x="-25" y="762"/>
      <point x="-29" y="757" type="curve"/>
      <point x="-29" y="706" type="line" smooth="yes"/>
      <point x="-29" y="695"/>
      <point x="-34" y="690"/>
      <point x="-44" y="690" type="curve" smooth="yes"/>
      <point x="-55" y="690"/>
      <point x="-61" y="695"/>
      <point x="-61" y="709" type="curve" smooth="yes"/>
      <point x="-61" y="767" type="line"/>
      <point x="-69" y="769"/>
      <point x="-77" y="771"/>
      <point x="-90" y="771" type="curve" smooth="yes"/>
      <point x="-116" y="771"/>
      <point x="-122" y="755"/>
      <point x="-122" y="739" type="curve" smooth="yes"/>
      <point x="-122" y="711" type="line" smooth="yes"/>
      <point x="-122" y="661"/>
      <point x="-97" y="641"/>
      <point x="-51" y="641" type="curve" smooth="yes"/>
      <point x="-27" y="641"/>
      <point x="-10" y="650"/>
    </contour>
    <contour>
      <point x="92" y="558" type="line"/>
      <point x="105" y="560"/>
      <point x="109" y="573"/>
      <point x="109" y="583" type="curve" smooth="yes"/>
      <point x="109" y="594"/>
      <point x="99" y="608"/>
      <point x="95" y="611" type="curve"/>
      <point x="-97" y="584" type="line" smooth="yes"/>
      <point x="-106" y="583"/>
      <point x="-116" y="573"/>
      <point x="-116" y="561" type="curve" smooth="yes"/>
      <point x="-116" y="547"/>
      <point x="-107" y="536"/>
      <point x="-101" y="531" type="curve"/>
    </contour>
    <contour>
      <point x="92" y="474" type="line"/>
      <point x="105" y="476"/>
      <point x="109" y="489"/>
      <point x="109" y="499" type="curve" smooth="yes"/>
      <point x="109" y="510"/>
      <point x="99" y="524"/>
      <point x="95" y="527" type="curve"/>
      <point x="-97" y="500" type="line" smooth="yes"/>
      <point x="-106" y="499"/>
      <point x="-116" y="489"/>
      <point x="-116" y="477" type="curve" smooth="yes"/>
      <point x="-116" y="463"/>
      <point x="-107" y="452"/>
      <point x="-101" y="447" type="curve"/>
    </contour>
  </outline>
</glyph>
<glyph name="TashdidWithZer.ur" format="1">
  <advance width="0"/>
  <unicode hex="FC62"/>
  <outline>
    <contour>
      <point x="-1" y="572" type="curve"/>
      <point x="9" y="562"/>
      <point x="26" y="553"/>
      <point x="50" y="553" type="curve" smooth="yes"/>
      <point x="96" y="553"/>
      <point x="122" y="573"/>
      <point x="122" y="623" type="curve" smooth="yes"/>
      <point x="122" y="651" type="line" smooth="yes"/>
      <point x="122" y="667"/>
      <point x="115" y="683"/>
      <point x="89" y="683" type="curve" smooth="yes"/>
      <point x="77" y="683"/>
      <point x="68" y="681"/>
      <point x="61" y="679" type="curve"/>
      <point x="61" y="621" type="line" smooth="yes"/>
      <point x="61" y="607"/>
      <point x="54" y="602"/>
      <point x="43" y="602" type="curve" smooth="yes"/>
      <point x="34" y="602"/>
      <point x="28" y="607"/>
      <point x="28" y="618" type="curve" smooth="yes"/>
      <point x="28" y="669" type="line"/>
      <point x="24" y="674"/>
      <point x="6" y="675"/>
      <point x="-1" y="675" type="curve" smooth="yes"/>
      <point x="-7" y="675"/>
      <point x="-25" y="674"/>
      <point x="-29" y="669" type="curve"/>
      <point x="-29" y="618" type="line" smooth="yes"/>
      <point x="-29" y="607"/>
      <point x="-34" y="602"/>
      <point x="-44" y="602" type="curve" smooth="yes"/>
      <point x="-55" y="602"/>
      <point x="-61" y="607"/>
      <point x="-61" y="621" type="curve" smooth="yes"/>
      <point x="-61" y="679" type="line"/>
      <point x="-69" y="681"/>
      <point x="-77" y="683"/>
      <point x="-90" y="683" type="curve" smooth="yes"/>
      <point x="-116" y="683"/>
      <point x="-122" y="667"/>
      <point x="-122" y="651" type="curve" smooth="yes"/>
      <point x="-122" y="623" type="line" smooth="yes"/>
      <point x="-122" y="573"/>
      <point x="-97" y="553"/>
      <point x="-51" y="553" type="curve" smooth="yes"/>
      <point x="-27" y="553"/>
      <point x="-10" y="562"/>
    </contour>
    <contour>
      <point x="102" y="474" type="line"/>
      <point x="115" y="476"/>
      <point x="119" y="489"/>
      <point x="119" y="499" type="curve" smooth="yes"/>
      <point x="119" y="510"/>
      <point x="109" y="524"/>
      <point x="105" y="527" type="curve"/>
      <point x="-87" y="500" type="line" smooth="yes"/>
      <point x="-96" y="499"/>
      <point x="-106" y="489"/>
      <point x="-106" y="477" type="curve" smooth="yes"/>
      <point x="-106" y="463"/>
      <point x="-97" y="452"/>
      <point x="-91" y="447" type="curve"/>
    </contour>
  </outline>
</glyph>
<glyph name="Ain.fina.ur" format="1">
  <advance width="577"/>
  <outline>
    <contour>
      <point x="510" y="0" type="curve"/>
      <point x="613" y="0" type="line"/>
      <point x="622" y="13"/>
      <point x="632" y="41"/>
      <point x="632" y="68" type="curve" smooth="yes"/>
      <point x="632" y="99"/>
      <point x="624" y="126"/>
      <point x="612" y="140" type="curve"/>
      <point x="479" y="140" type="line"/>
      <point x="509" y="165"/>
      <point x="536" y="216"/>
      <point x="536" y="260" type="curve" smooth="yes"/>
      <point x="536" y="368"/>
      <point x="454" y="462"/>
      <point x="293" y="462" type="curve" smooth="yes"/>
      <point x="149" y="462"/>
      <point x="56" y="354"/>
      <point x="56" y="296" type="curve" smooth="yes"/>
      <point x="56" y="270"/>
      <point x="67" y="231"/>
      <point x="165" y="114" type="curve"/>
      <point x="86" y="78"/>
      <point x="35" y="15"/>
      <point x="35" y="-81" type="curve" smooth="yes"/>
      <point x="35" y="-221"/>
      <point x="160" y="-314"/>
      <point x="354" y="-314" type="curve" smooth="yes"/>
      <point x="444" y="-314"/>
      <point x="499" y="-288"/>
      <point x="499" y="-219" type="curve" smooth="yes"/>
      <point x="499" y="-199"/>
      <point x="494" y="-178"/>
      <point x="481" y="-152" type="curve"/>
      <point x="457" y="-159"/>
      <point x="425" y="-165"/>
      <point x="381" y="-165" type="curve" smooth="yes"/>
      <point x="283" y="-165"/>
      <point x="234" y="-126"/>
      <point x="234" y="-70" type="curve" smooth="yes"/>
      <point x="234" y="-19"/>
      <point x="277" y="17"/>
      <point x="323" y="33" type="curve"/>
      <point x="367" y="11"/>
      <point x="416" y="0"/>
    </contour>
    <contour>
      <point x="319" y="168" type="curve"/>
      <point x="273" y="209"/>
      <point x="235" y="262"/>
      <point x="235" y="282" type="curve" smooth="yes"/>
      <point x="235" y="295"/>
      <point x="262" y="315"/>
      <point x="294" y="315" type="curve" smooth="yes"/>
      <point x="333" y="315"/>
      <point x="360" y="293"/>
      <point x="360" y="249" type="curve" smooth="yes"/>
      <point x="360" y="214"/>
      <point x="339" y="186"/>
    </contour>
  </outline>
</glyph>
<glyph name="Ain.medi.ur" format="1">
  <advance width="534"/>
  <outline>
    <contour>
      <point x="91" y="0" type="line"/>
      <point x="166" y="0"/>
      <point x="226" y="14"/>
      <point x="265" y="27" type="curve"/>
      <point x="303" y="12"/>
      <point x="351" y="0"/>
      <point x="454" y="0" type="curve" smooth="yes"/>
      <point x="571" y="0" type="line"/>
      <point x="580" y="13"/>
      <point x="590" y="41"/>
      <point x="590" y="68" type="curve" smooth="yes"/>
      <point x="590" y="99"/>
      <point x="582" y="126"/>
      <point x="570" y="140" type="curve"/>
      <point x="463" y="140" type="line"/>
      <point x="489" y="169"/>
      <point x="510" y="216"/>
      <point x="510" y="260" type="curve" smooth="yes"/>
      <point x="510" y="368"/>
      <point x="428" y="462"/>
      <point x="267" y="462" type="curve" smooth="yes"/>
      <point x="123" y="462"/>
      <point x="33" y="356"/>
      <point x="33" y="298" type="curve" smooth="yes"/>
      <point x="33" y="267"/>
      <point x="64" y="215"/>
      <point x="116" y="144" type="curve"/>
      <point x="98" y="140"/>
      <point x="73" y="140"/>
      <point x="41" y="140" type="curve" smooth="yes"/>
      <point x="-3" y="140" type="line"/>
      <point x="-8" y="123"/>
      <point x="-10" y="107"/>
      <point x="-10" y="90" type="curve" smooth="yes"/>
      <point x="-10" y="51"/>
      <point x="8" y="17"/>
      <point x="33" y="0" type="curve"/>
    </contour>
    <contour>
      <point x="290" y="164" type="curve"/>
      <point x="259" y="196"/>
      <point x="209" y="257"/>
      <point x="209" y="282" type="curve" smooth="yes"/>
      <point x="209" y="295"/>
      <point x="236" y="315"/>
      <point x="268" y="315" type="curve" smooth="yes"/>
      <point x="307" y="315"/>
      <point x="334" y="293"/>
      <point x="334" y="249" type="curve" smooth="yes"/>
      <point x="334" y="214"/>
      <point x="313" y="186"/>
    </contour>
  </outline>
</glyph>
<glyph name="Alef.fina.ur" format="1">
  <advance width="325"/>
  <outline>
    <contour>
      <point x="226" y="531" type="line"/>
      <point x="226" y="596"/>
      <point x="185" y="608"/>
      <point x="130" y="608" type="curve" smooth="yes"/>
      <point x="100" y="608"/>
      <point x="65" y="602"/>
      <point x="50" y="600" type="curve"/>
      <point x="50" y="269" type="line" smooth="yes"/>
      <point x="50" y="81"/>
      <point x="145" y="0"/>
      <point x="335" y="0" type="curve" smooth="yes"/>
      <point x="376" y="0" type="line"/>
      <point x="387" y="12"/>
      <point x="398" y="41"/>
      <point x="398" y="68" type="curve" smooth="yes"/>
      <point x="398" y="99"/>
      <point x="390" y="126"/>
      <point x="378" y="140" type="curve"/>
      <point x="337" y="140" type="line" smooth="yes"/>
      <point x="273" y="140"/>
      <point x="226" y="175"/>
      <point x="226" y="259" type="curve" smooth="yes"/>
    </contour>
  </outline>
</glyph>
<glyph name="Beh.comp" format="1">
  <advance width="946"/>
  <outline>
    <contour>
      <point x="424" y="140" type="line" smooth="yes"/>
      <point x="259" y="140"/>
      <point x="218" y="185"/>
      <point x="218" y="326" type="curve" smooth="yes"/>
      <point x="218" y="377" type="line"/>
      <point x="201" y="382"/>
      <point x="173" y="387"/>
      <point x="147" y="387" type="curve" smooth="yes"/>
      <point x="69" y="387"/>
      <point x="40" y="356"/>
      <point x="40" y="279" type="curve" smooth="yes"/>
      <point x="40" y="70"/>
      <point x="183" y="0"/>
      <point x="384" y="0" type="curve" smooth="yes"/>
      <point x="553" y="0" type="line" smooth="yes"/>
      <point x="809" y="0"/>
      <point x="906" y="102"/>
      <point x="906" y="289" type="curve" smooth="yes"/>
      <point x="906" y="409"/>
      <point x="871" y="429"/>
      <point x="798" y="429" type="curve" smooth="yes"/>
      <point x="772" y="429"/>
      <point x="747" y="425"/>
      <point x="722" y="419" type="curve"/>
      <point x="726" y="379"/>
      <point x="728" y="357"/>
      <point x="728" y="306" type="curve" smooth="yes"/>
      <point x="728" y="179"/>
      <point x="665" y="140"/>
      <point x="510" y="140" type="curve" smooth="yes"/>
    </contour>
  </outline>
</glyph>
<glyph name="Ddal.fina.ur" format="1">
  <advance width="527"/>
  <outline>
    <contour>
      <point x="58" y="140" type="line"/>
      <point x="49" y="126"/>
      <point x="40" y="99"/>
      <point x="40" y="71" type="curve" smooth="yes"/>
      <point x="40" y="21"/>
      <point x="65" y="0"/>
      <point x="101" y="0" type="curve" smooth="yes"/>
      <point x="257" y="0" type="line" smooth="yes"/>
      <point x="329" y="0"/>
      <point x="377" y="16"/>
      <point x="407" y="46" type="curve"/>
      <point x="437" y="18"/>
      <point x="482" y="0"/>
      <point x="552" y="0" type="curve" smooth="yes"/>
      <point x="565" y="0" type="line"/>
      <point x="574" y="13"/>
      <point x="584" y="41"/>
      <point x="584" y="68" type="curve" smooth="yes"/>
      <point x="584" y="99"/>
      <point x="576" y="126"/>
      <point x="564" y="140" type="curve"/>
      <point x="540" y="140" type="line" smooth="yes"/>
      <point x="500" y="140"/>
      <point x="459" y="155"/>
      <point x="444" y="199" type="curve"/>
      <point x="436" y="260"/>
      <point x="404" y="346"/>
      <point x="341" y="415" type="curve" smooth="yes"/>
      <point x="320" y="438"/>
      <point x="293" y="450"/>
      <point x="266" y="450" type="curve" smooth="yes"/>
      <point x="228" y="450"/>
      <point x="190" y="427"/>
      <point x="165" y="386" type="curve"/>
      <point x="191" y="350"/>
      <point x="269" y="238"/>
      <point x="269" y="178" type="curve" smooth="yes"/>
      <point x="269" y="152"/>
      <point x="252" y="140"/>
      <point x="214" y="140" type="curve" smooth="yes"/>
    </contour>
    <contour>
      <point x="148" y="595" type="curve"/>
      <point x="131" y="597"/>
      <point x="115" y="600"/>
      <point x="106" y="602" type="curve"/>
      <point x="99" y="592"/>
      <point x="93" y="574"/>
      <point x="93" y="560" type="curve" smooth="yes"/>
      <point x="93" y="528"/>
      <point x="108" y="522"/>
      <point x="127" y="515" type="curve" smooth="yes"/>
      <point x="157" y="504"/>
      <point x="222" y="496"/>
      <point x="254" y="496" type="curve" smooth="yes"/>
      <point x="365" y="496"/>
      <point x="424" y="535"/>
      <point x="424" y="603" type="curve" smooth="yes"/>
      <point x="424" y="655"/>
      <point x="384" y="694"/>
      <point x="327" y="694" type="curve" smooth="yes"/>
      <point x="296" y="694"/>
      <point x="272" y="689"/>
      <point x="246" y="674" type="curve"/>
      <point x="246" y="716" type="line" smooth="yes"/>
      <point x="246" y="753"/>
      <point x="214" y="759"/>
      <point x="188" y="759" type="curve" smooth="yes"/>
      <point x="174" y="759"/>
      <point x="164" y="758"/>
      <point x="149" y="755" type="curve"/>
      <point x="149" y="748"/>
    </contour>
    <contour>
      <point x="325" y="601" type="curve" smooth="yes"/>
      <point x="325" y="583"/>
      <point x="298" y="575"/>
      <point x="258" y="575" type="curve" smooth="yes"/>
      <point x="250" y="575"/>
      <point x="237" y="576"/>
      <point x="231" y="576" type="curve"/>
      <point x="246" y="599"/>
      <point x="276" y="618"/>
      <point x="302" y="618" type="curve" smooth="yes"/>
      <point x="316" y="618"/>
      <point x="325" y="613"/>
    </contour>
  </outline>
</glyph>
<glyph name="Dot1.comp" format="1">
  <advance width="0"/>
  <outline>
    <contour>
      <point x="-145" y="285" type="curve" smooth="yes"/>
      <point x="-94" y="285"/>
      <point x="-63" y="318"/>
      <point x="-63" y="361" type="curve" smooth="yes"/>
      <point x="-63" y="406"/>
      <point x="-98" y="438"/>
      <point x="-145" y="438" type="curve" smooth="yes"/>
      <point x="-191" y="438"/>
      <point x="-227" y="406"/>
      <point x="-227" y="361" type="curve" smooth="yes"/>
      <point x="-227" y="318"/>
      <point x="-194" y="285"/>
    </contour>
  </outline>
</glyph>
<glyph name="Dot3Down.comp" format="1">
  <advance width="0"/>
  <outline>
    <contour>
      <point x="320" y="605" type="curve"/>
      <point x="271" y="605"/>
      <point x="242" y="573"/>
      <point x="242" y="531" type="curve" smooth="yes"/>
      <point x="242" y="487"/>
      <point x="275" y="456"/>
      <point x="320" y="456" type="curve" smooth="yes"/>
      <point x="364" y="456"/>
      <point x="398" y="487"/>
      <point x="398" y="531" type="curve" smooth="yes"/>
      <point x="398" y="573"/>
      <point x="367" y="605"/>
    </contour>
    <contour>
      <point x="136" y="605" type="curve"/>
      <point x="87" y="605"/>
      <point x="58" y="573"/>
      <point x="58" y="531" type="curve" smooth="yes"/>
      <point x="58" y="487"/>
      <point x="91" y="456"/>
      <point x="136" y="456" type="curve" smooth="yes"/>
      <point x="180" y="456"/>
      <point x="214" y="487"/>
      <point x="214" y="531" type="curve" smooth="yes"/>
      <point x="214" y="573"/>
      <point x="183" y="605"/>
    </contour>
    <contour>
      <point x="229" y="454" type="curve"/>
      <point x="182" y="454"/>
      <point x="152" y="423"/>
      <point x="152" y="385" type="curve" smooth="yes"/>
      <point x="152" y="343"/>
      <point x="186" y="315"/>
      <point x="229" y="315" type="curve" smooth="yes"/>
      <point x="271" y="315"/>
      <point x="306" y="343"/>
      <point x="306" y="385" type="curve" smooth="yes"/>
      <point x="306" y="423"/>
      <point x="274" y="454"/>
    </contour>
  </outline>
</glyph>
<glyph name="Dot3Up.comp" format="1">
  <advance width="0"/>
  <outline>
    <contour>
      <point x="138" y="294" type="curve"/>
      <point x="187" y="294"/>
      <point x="216" y="326"/>
      <point x="216" y="368" type="curve" smooth="yes"/>
      <point x="216" y="412"/>
      <point x="183" y="443"/>
      <point x="138" y="443" type="curve" smooth="yes"/>
      <point x="94" y="443"/>
      <point x="60" y="412"/>
      <point x="60" y="368" type="curve" smooth="yes"/>
      <point x="60" y="326"/>
      <point x="91" y="294"/>
    </contour>
    <contour>
      <point x="322" y="294" type="curve"/>
      <point x="371" y="294"/>
      <point x="400" y="326"/>
      <point x="400" y="368" type="curve" smooth="yes"/>
      <point x="400" y="412"/>
      <point x="367" y="443"/>
      <point x="322" y="443" type="curve" smooth="yes"/>
      <point x="278" y="443"/>
      <point x="244" y="412"/>
      <point x="244" y="368" type="curve" smooth="yes"/>
      <point x="244" y="326"/>
      <point x="275" y="294"/>
    </contour>
    <contour>
      <point x="229" y="445" type="curve"/>
      <point x="276" y="445"/>
      <point x="306" y="476"/>
      <point x="306" y="514" type="curve" smooth="yes"/>
      <point x="306" y="556"/>
      <point x="272" y="584"/>
      <point x="229" y="584" type="curve" smooth="yes"/>
      <point x="187" y="584"/>
      <point x="152" y="556"/>
      <point x="152" y="514" type="curve" smooth="yes"/>
      <point x="152" y="476"/>
      <point x="184" y="445"/>
    </contour>
  </outline>
</glyph>
<glyph name="Feh.fina.ur" format="1">
  <advance width="994"/>
  <outline>
    <contour>
      <point x="424" y="140" type="line"/>
      <point x="259" y="140"/>
      <point x="218" y="185"/>
      <point x="218" y="326" type="curve" smooth="yes"/>
      <point x="218" y="373" type="line"/>
      <point x="203" y="380"/>
      <point x="172" y="387"/>
      <point x="140" y="387" type="curve" smooth="yes"/>
      <point x="57" y="387"/>
      <point x="40" y="356"/>
      <point x="40" y="279" type="curve" smooth="yes"/>
      <point x="40" y="70"/>
      <point x="183" y="0"/>
      <point x="384" y="0" type="curve" smooth="yes"/>
      <point x="1032" y="0" type="line"/>
      <point x="1041" y="13"/>
      <point x="1051" y="41"/>
      <point x="1051" y="68" type="curve" smooth="yes"/>
      <point x="1051" y="99"/>
      <point x="1043" y="126"/>
      <point x="1031" y="140" type="curve"/>
      <point x="921" y="140" type="line"/>
      <point x="939" y="162"/>
      <point x="956" y="210"/>
      <point x="956" y="244" type="curve" smooth="yes"/>
      <point x="956" y="382"/>
      <point x="855" y="463"/>
      <point x="715" y="463" type="curve" smooth="yes"/>
      <point x="575" y="463"/>
      <point x="474" y="382"/>
      <point x="474" y="247" type="curve" smooth="yes"/>
      <point x="474" y="206"/>
      <point x="489" y="161"/>
      <point x="506" y="140" type="curve"/>
    </contour>
    <contour>
      <point x="711" y="511" type="curve"/>
      <point x="762" y="511"/>
      <point x="793" y="544"/>
      <point x="793" y="587" type="curve" smooth="yes"/>
      <point x="793" y="632"/>
      <point x="758" y="664"/>
      <point x="711" y="664" type="curve" smooth="yes"/>
      <point x="665" y="664"/>
      <point x="629" y="632"/>
      <point x="629" y="587" type="curve" smooth="yes"/>
      <point x="629" y="544"/>
      <point x="662" y="511"/>
    </contour>
    <contour>
      <point x="710" y="132" type="curve"/>
      <point x="671" y="146"/>
      <point x="641" y="188"/>
      <point x="641" y="236" type="curve" smooth="yes"/>
      <point x="641" y="291"/>
      <point x="675" y="317"/>
      <point x="714" y="317" type="curve" smooth="yes"/>
      <point x="753" y="317"/>
      <point x="779" y="287"/>
      <point x="779" y="236" type="curve" smooth="yes"/>
      <point x="779" y="181"/>
      <point x="746" y="148"/>
    </contour>
  </outline>
</glyph>
<glyph name="Gaf.fina.ur" format="1">
  <advance width="955"/>
  <outline>
    <contour>
      <point x="647" y="0" type="line"/>
      <point x="719" y="0"/>
      <point x="775" y="15"/>
      <point x="815" y="40" type="curve"/>
      <point x="845" y="17"/>
      <point x="888" y="0"/>
      <point x="964" y="0" type="curve" smooth="yes"/>
      <point x="992" y="0" type="line"/>
      <point x="1001" y="13"/>
      <point x="1011" y="41"/>
      <point x="1011" y="68" type="curve" smooth="yes"/>
      <point x="1011" y="99"/>
      <point x="1003" y="126"/>
      <point x="991" y="140" type="curve"/>
      <point x="967" y="140" type="line" smooth="yes"/>
      <point x="941" y="140"/>
      <point x="910" y="147"/>
      <point x="891" y="157" type="curve"/>
      <point x="893" y="168"/>
      <point x="894" y="180"/>
      <point x="894" y="192" type="curve" smooth="yes"/>
      <point x="894" y="310"/>
      <point x="801" y="358"/>
      <point x="698" y="401" type="curve" smooth="yes"/>
      <point x="624" y="432" type="line"/>
      <point x="822" y="533" type="line" smooth="yes"/>
      <point x="855" y="550"/>
      <point x="864" y="566"/>
      <point x="864" y="593" type="curve" smooth="yes"/>
      <point x="864" y="639"/>
      <point x="826" y="683"/>
      <point x="787" y="700" type="curve"/>
      <point x="434" y="483" type="line"/>
      <point x="430" y="467"/>
      <point x="428" y="446"/>
      <point x="428" y="428" type="curve" smooth="yes"/>
      <point x="428" y="402"/>
      <point x="434" y="363"/>
      <point x="443" y="349" type="curve"/>
      <point x="639" y="262" type="line" smooth="yes"/>
      <point x="692" y="238"/>
      <point x="708" y="225"/>
      <point x="708" y="194" type="curve" smooth="yes"/>
      <point x="708" y="163"/>
      <point x="682" y="140"/>
      <point x="636" y="140" type="curve" smooth="yes"/>
      <point x="435" y="140" type="line" smooth="yes"/>
      <point x="280" y="140"/>
      <point x="217" y="179"/>
      <point x="217" y="306" type="curve" smooth="yes"/>
      <point x="217" y="357"/>
      <point x="219" y="379"/>
      <point x="223" y="419" type="curve"/>
      <point x="198" y="425"/>
      <point x="173" y="429"/>
      <point x="147" y="429" type="curve" smooth="yes"/>
      <point x="74" y="429"/>
      <point x="39" y="409"/>
      <point x="39" y="289" type="curve" smooth="yes"/>
      <point x="39" y="102"/>
      <point x="136" y="0"/>
      <point x="392" y="0" type="curve" smooth="yes"/>
    </contour>
    <contour>
      <point x="399" y="658" type="line" smooth="yes"/>
      <point x="375" y="643"/>
      <point x="362" y="627"/>
      <point x="362" y="605" type="curve" smooth="yes"/>
      <point x="362" y="580"/>
      <point x="377" y="555"/>
      <point x="407" y="537" type="curve"/>
      <point x="675" y="696" type="line" smooth="yes"/>
      <point x="704" y="713"/>
      <point x="718" y="726"/>
      <point x="718" y="748" type="curve" smooth="yes"/>
      <point x="718" y="778"/>
      <point x="690" y="805"/>
      <point x="663" y="819" type="curve"/>
    </contour>
  </outline>
</glyph>
<glyph name="Gaf.init.ur" format="1">
  <advance width="668"/>
  <outline>
    <contour>
      <point x="-3" y="140" type="line"/>
      <point x="-8" y="123"/>
      <point x="-10" y="107"/>
      <point x="-10" y="90" type="curve" smooth="yes"/>
      <point x="-10" y="51"/>
      <point x="8" y="17"/>
      <point x="33" y="0" type="curve"/>
      <point x="381" y="0" type="line" smooth="yes"/>
      <point x="550" y="0"/>
      <point x="628" y="79"/>
      <point x="628" y="192" type="curve" smooth="yes"/>
      <point x="628" y="310"/>
      <point x="535" y="358"/>
      <point x="432" y="401" type="curve" smooth="yes"/>
      <point x="358" y="432" type="line"/>
      <point x="556" y="533" type="line" smooth="yes"/>
      <point x="589" y="550"/>
      <point x="598" y="566"/>
      <point x="598" y="593" type="curve" smooth="yes"/>
      <point x="598" y="639"/>
      <point x="560" y="683"/>
      <point x="521" y="700" type="curve"/>
      <point x="168" y="483" type="line"/>
      <point x="164" y="467"/>
      <point x="162" y="446"/>
      <point x="162" y="428" type="curve" smooth="yes"/>
      <point x="162" y="402"/>
      <point x="168" y="363"/>
      <point x="177" y="349" type="curve"/>
      <point x="373" y="262" type="line" smooth="yes"/>
      <point x="426" y="238"/>
      <point x="442" y="225"/>
      <point x="442" y="194" type="curve" smooth="yes"/>
      <point x="442" y="163"/>
      <point x="416" y="140"/>
      <point x="370" y="140" type="curve" smooth="yes"/>
    </contour>
    <contour>
      <point x="132" y="658" type="line" smooth="yes"/>
      <point x="108" y="643"/>
      <point x="95" y="627"/>
      <point x="95" y="605" type="curve" smooth="yes"/>
      <point x="95" y="580"/>
      <point x="110" y="555"/>
      <point x="140" y="537" type="curve"/>
      <point x="408" y="696" type="line" smooth="yes"/>
      <point x="437" y="713"/>
      <point x="451" y="726"/>
      <point x="451" y="748" type="curve" smooth="yes"/>
      <point x="451" y="778"/>
      <point x="423" y="805"/>
      <point x="396" y="819" type="curve"/>
    </contour>
  </outline>
</glyph>
<glyph name="Ghain.init.ur" format="1">
  <advance width="516"/>
  <outline>
    <contour>
      <point x="-3" y="140" type="line"/>
      <point x="-8" y="123"/>
      <point x="-10" y="107"/>
      <point x="-10" y="90" type="curve" smooth="yes"/>
      <point x="-10" y="51"/>
      <point x="8" y="17"/>
      <point x="33" y="0" type="curve"/>
      <point x="237" y="0" type="line"/>
      <point x="390" y="0"/>
      <point x="496" y="4"/>
      <point x="496" y="93" type="curve" smooth="yes"/>
      <point x="496" y="122"/>
      <point x="479" y="153"/>
      <point x="461" y="169" type="curve"/>
      <point x="422" y="153"/>
      <point x="392" y="144"/>
      <point x="346" y="144" type="curve" smooth="yes"/>
      <point x="282" y="144"/>
      <point x="245" y="180"/>
      <point x="245" y="231" type="curve" smooth="yes"/>
      <point x="245" y="290"/>
      <point x="287" y="318"/>
      <point x="337" y="318" type="curve"/>
      <point x="361" y="318"/>
      <point x="375" y="315"/>
      <point x="395" y="309" type="curve"/>
      <point x="408" y="324"/>
      <point x="417" y="345"/>
      <point x="417" y="370" type="curve" smooth="yes"/>
      <point x="417" y="428"/>
      <point x="377" y="462"/>
      <point x="297" y="462" type="curve" smooth="yes"/>
      <point x="158" y="462"/>
      <point x="68" y="374"/>
      <point x="68" y="259" type="curve" smooth="yes"/>
      <point x="68" y="212"/>
      <point x="90" y="163"/>
      <point x="116" y="140" type="curve"/>
    </contour>
    <contour>
      <point x="280" y="512" type="curve"/>
      <point x="331" y="512"/>
      <point x="362" y="545"/>
      <point x="362" y="588" type="curve" smooth="yes"/>
      <point x="362" y="633"/>
      <point x="327" y="665"/>
      <point x="280" y="665" type="curve" smooth="yes"/>
      <point x="234" y="665"/>
      <point x="198" y="633"/>
      <point x="198" y="588" type="curve" smooth="yes"/>
      <point x="198" y="545"/>
      <point x="231" y="512"/>
    </contour>
  </outline>
</glyph>
<glyph name="HehDochashmi.init.ur" format="1">
  <advance width="750"/>
  <outline>
    <contour>
      <point x="439" y="0" type="line" smooth="yes"/>
      <point x="592" y="0"/>
      <point x="705" y="81"/>
      <point x="705" y="240" type="curve" smooth="yes"/>
      <point x="705" y="443"/>
      <point x="509" y="584"/>
      <point x="337" y="584" type="curve" smooth="yes"/>
      <point x="277" y="584"/>
      <point x="241" y="549"/>
      <point x="241" y="487" type="curve" smooth="yes"/>
      <point x="241" y="468"/>
      <point x="242" y="462"/>
      <point x="244" y="451" type="curve"/>
      <point x="385" y="440"/>
      <point x="529" y="363"/>
      <point x="529" y="238" type="curve" smooth="yes"/>
      <point x="529" y="178"/>
      <point x="488" y="136"/>
      <point x="442" y="134" type="curve"/>
      <point x="446" y="147"/>
      <point x="453" y="170"/>
      <point x="453" y="197" type="curve" smooth="yes"/>
      <point x="453" y="300"/>
      <point x="362" y="369"/>
      <point x="247" y="369" type="curve" smooth="yes"/>
      <point x="133" y="369"/>
      <point x="62" y="299"/>
      <point x="62" y="208" type="curve" smooth="yes"/>
      <point x="62" y="176"/>
      <point x="70" y="154"/>
      <point x="77" y="140" type="curve"/>
      <point x="-3" y="140" type="line"/>
      <point x="-8" y="123"/>
      <point x="-10" y="107"/>
      <point x="-10" y="90" type="curve" smooth="yes"/>
      <point x="-10" y="51"/>
      <point x="8" y="17"/>
      <point x="33" y="0" type="curve"/>
    </contour>
    <contour>
      <point x="283" y="134" type="line" smooth="yes"/>
      <point x="231" y="134"/>
      <point x="210" y="159"/>
      <point x="210" y="190" type="curve" smooth="yes"/>
      <point x="210" y="218"/>
      <point x="228" y="239"/>
      <point x="255" y="239" type="curve" smooth="yes"/>
      <point x="284" y="239"/>
      <point x="306" y="220"/>
      <point x="306" y="182" type="curve" smooth="yes"/>
      <point x="306" y="165"/>
      <point x="301" y="143"/>
      <point x="297" y="134" type="curve"/>
    </contour>
  </outline>
</glyph>
<glyph name="HehGoal.medi.ur" format="1">
  <advance width="686"/>
  <outline>
    <contour>
      <point x="144" y="267" type="line" smooth="yes"/>
      <point x="144" y="192"/>
      <point x="115" y="140"/>
      <point x="31" y="140" type="curve" smooth="yes"/>
      <point x="-3" y="140" type="line"/>
      <point x="-8" y="123"/>
      <point x="-10" y="107"/>
      <point x="-10" y="90" type="curve" smooth="yes"/>
      <point x="-10" y="51"/>
      <point x="8" y="17"/>
      <point x="33" y="0" type="curve"/>
      <point x="54" y="0" type="line" smooth="yes"/>
      <point x="108" y="0"/>
      <point x="142" y="24"/>
      <point x="154" y="38" type="curve"/>
      <point x="154" y="-28" type="line" smooth="yes"/>
      <point x="154" y="-220"/>
      <point x="264" y="-306"/>
      <point x="437" y="-306" type="curve" smooth="yes"/>
      <point x="480" y="-306"/>
      <point x="520" y="-300"/>
      <point x="551" y="-292" type="curve" smooth="yes"/>
      <point x="580" y="-285"/>
      <point x="596" y="-269"/>
      <point x="596" y="-234" type="curve"/>
      <point x="596" y="-77" type="line" smooth="yes"/>
      <point x="596" y="-30"/>
      <point x="615" y="0"/>
      <point x="664" y="0" type="curve" smooth="yes"/>
      <point x="723" y="0" type="line"/>
      <point x="732" y="13"/>
      <point x="742" y="41"/>
      <point x="742" y="68" type="curve" smooth="yes"/>
      <point x="742" y="99"/>
      <point x="734" y="126"/>
      <point x="722" y="140" type="curve"/>
      <point x="637" y="140" type="line" smooth="yes"/>
      <point x="513" y="140"/>
      <point x="434" y="70"/>
      <point x="434" y="-61" type="curve" smooth="yes"/>
      <point x="434" y="-163" type="line"/>
      <point x="430" y="-164"/>
      <point x="425" y="-164"/>
      <point x="421" y="-164" type="curve" smooth="yes"/>
      <point x="372" y="-164"/>
      <point x="322" y="-134"/>
      <point x="322" y="-41" type="curve" smooth="yes"/>
      <point x="322" y="279" type="line" smooth="yes"/>
      <point x="322" y="356"/>
      <point x="293" y="387"/>
      <point x="215" y="387" type="curve" smooth="yes"/>
      <point x="188" y="387"/>
      <point x="166" y="383"/>
      <point x="144" y="377" type="curve"/>
    </contour>
  </outline>
</glyph>
<glyph name="Jeem.medi.ur" format="1">
  <advance width="514"/>
  <outline>
    <contour>
      <point x="551" y="0" type="line"/>
      <point x="560" y="13"/>
      <point x="569" y="41"/>
      <point x="569" y="68" type="curve" smooth="yes"/>
      <point x="569" y="99"/>
      <point x="562" y="126"/>
      <point x="550" y="140" type="curve"/>
      <point x="477" y="140" type="line"/>
      <point x="468" y="318"/>
      <point x="313" y="469"/>
      <point x="146" y="469" type="curve" smooth="yes"/>
      <point x="73" y="469"/>
      <point x="33" y="438"/>
      <point x="33" y="386" type="curve" smooth="yes"/>
      <point x="33" y="355"/>
      <point x="42" y="334"/>
      <point x="51" y="319" type="curve"/>
      <point x="73" y="319" type="line" smooth="yes"/>
      <point x="189" y="319"/>
      <point x="291" y="247"/>
      <point x="293" y="140" type="curve"/>
      <point x="-3" y="140" type="line"/>
      <point x="-8" y="123"/>
      <point x="-10" y="107"/>
      <point x="-10" y="90" type="curve" smooth="yes"/>
      <point x="-10" y="51"/>
      <point x="8" y="17"/>
      <point x="33" y="0" type="curve"/>
    </contour>
    <contour>
      <point x="180" y="-212" type="curve"/>
      <point x="231" y="-212"/>
      <point x="262" y="-179"/>
      <point x="262" y="-136" type="curve" smooth="yes"/>
      <point x="262" y="-91"/>
      <point x="227" y="-59"/>
      <point x="180" y="-59" type="curve" smooth="yes"/>
      <point x="134" y="-59"/>
      <point x="98" y="-91"/>
      <point x="98" y="-136" type="curve" smooth="yes"/>
      <point x="98" y="-179"/>
      <point x="131" y="-212"/>
    </contour>
  </outline>
</glyph>
<glyph name="Kaf.init.ur" format="1">
  <advance width="557"/>
  <outline>
    <contour>
      <point x="-3" y="140" type="line"/>
      <point x="-8" y="123"/>
      <point x="-10" y="107"/>
      <point x="-10" y="90" type="curve" smooth="yes"/>
      <point x="-10" y="51"/>
      <point x="8" y="17"/>
      <point x="33" y="0" type="curve"/>
      <point x="270" y="0" type="line" smooth="yes"/>
      <point x="439" y="0"/>
      <point x="517" y="79"/>
      <point x="517" y="192" type="curve" smooth="yes"/>
      <point x="517" y="310"/>
      <point x="424" y="358"/>
      <point x="321" y="401" type="curve" smooth="yes"/>
      <point x="247" y="432" type="line"/>
      <point x="445" y="533" type="line" smooth="yes"/>
      <point x="478" y="550"/>
      <point x="487" y="566"/>
      <point x="487" y="593" type="curve" smooth="yes"/>
      <point x="487" y="639"/>
      <point x="449" y="683"/>
      <point x="410" y="700" type="curve"/>
      <point x="57" y="483" type="line"/>
      <point x="53" y="467"/>
      <point x="51" y="446"/>
      <point x="51" y="428" type="curve" smooth="yes"/>
      <point x="51" y="402"/>
      <point x="57" y="363"/>
      <point x="66" y="349" type="curve"/>
      <point x="262" y="262" type="line" smooth="yes"/>
      <point x="315" y="238"/>
      <point x="331" y="225"/>
      <point x="331" y="194" type="curve" smooth="yes"/>
      <point x="331" y="163"/>
      <point x="305" y="140"/>
      <point x="259" y="140" type="curve" smooth="yes"/>
    </contour>
  </outline>
</glyph>
<glyph name="Khah.fina.ur" format="1">
  <advance width="624"/>
  <outline>
    <contour>
      <point x="40" y="-90" type="curve"/>
      <point x="40" y="-232"/>
      <point x="144" y="-310"/>
      <point x="287" y="-310" type="curve" smooth="yes"/>
      <point x="380" y="-310"/>
      <point x="407" y="-277"/>
      <point x="407" y="-228" type="curve" smooth="yes"/>
      <point x="407" y="-205"/>
      <point x="396" y="-178"/>
      <point x="386" y="-163" type="curve"/>
      <point x="366" y="-166"/>
      <point x="350" y="-168"/>
      <point x="324" y="-168" type="curve" smooth="yes"/>
      <point x="258" y="-168"/>
      <point x="222" y="-139"/>
      <point x="222" y="-88" type="curve" smooth="yes"/>
      <point x="222" y="-35"/>
      <point x="259" y="0"/>
      <point x="330" y="0" type="curve" smooth="yes"/>
      <point x="662" y="0" type="line"/>
      <point x="670" y="13"/>
      <point x="680" y="41"/>
      <point x="680" y="68" type="curve" smooth="yes"/>
      <point x="680" y="99"/>
      <point x="672" y="126"/>
      <point x="661" y="140" type="curve"/>
      <point x="585" y="140" type="line"/>
      <point x="576" y="318"/>
      <point x="421" y="469"/>
      <point x="254" y="469" type="curve" smooth="yes"/>
      <point x="181" y="469"/>
      <point x="141" y="438"/>
      <point x="141" y="386" type="curve" smooth="yes"/>
      <point x="141" y="355"/>
      <point x="150" y="334"/>
      <point x="159" y="319" type="curve"/>
      <point x="181" y="319" type="line" smooth="yes"/>
      <point x="297" y="319"/>
      <point x="399" y="247"/>
      <point x="401" y="140" type="curve"/>
      <point x="316" y="140" type="line" smooth="yes"/>
      <point x="135" y="140"/>
      <point x="40" y="45"/>
    </contour>
    <contour>
      <point x="298" y="517" type="curve"/>
      <point x="349" y="517"/>
      <point x="380" y="550"/>
      <point x="380" y="593" type="curve" smooth="yes"/>
      <point x="380" y="638"/>
      <point x="345" y="670"/>
      <point x="298" y="670" type="curve" smooth="yes"/>
      <point x="252" y="670"/>
      <point x="216" y="638"/>
      <point x="216" y="593" type="curve" smooth="yes"/>
      <point x="216" y="550"/>
      <point x="249" y="517"/>
    </contour>
  </outline>
</glyph>
<glyph name="Meem.fina.ur" format="1">
  <advance width="803"/>
  <outline>
    <contour>
      <point x="585" y="144" type="curve"/>
      <point x="569" y="143"/>
      <point x="544" y="142"/>
      <point x="527" y="142" type="curve" smooth="yes"/>
      <point x="481" y="142"/>
      <point x="430" y="150"/>
      <point x="396" y="160" type="curve"/>
      <point x="425" y="243"/>
      <point x="475" y="316"/>
      <point x="496" y="316" type="curve" smooth="yes"/>
      <point x="513" y="316"/>
      <point x="542" y="285"/>
    </contour>
    <contour>
      <point x="806" y="140" type="line"/>
      <point x="770" y="140"/>
      <point x="749" y="182"/>
      <point x="721" y="249" type="curve" smooth="yes"/>
      <point x="654" y="409"/>
      <point x="607" y="463"/>
      <point x="494" y="463" type="curve" smooth="yes"/>
      <point x="371" y="463"/>
      <point x="321" y="380"/>
      <point x="222" y="206" type="curve"/>
      <point x="95" y="206"/>
      <point x="40" y="168"/>
      <point x="40" y="-8" type="curve" smooth="yes"/>
      <point x="40" y="-231" type="line" smooth="yes"/>
      <point x="40" y="-294"/>
      <point x="89" y="-307"/>
      <point x="145" y="-307" type="curve" smooth="yes"/>
      <point x="170" y="-307"/>
      <point x="200" y="-301"/>
      <point x="217" y="-294" type="curve"/>
      <point x="217" y="-7" type="line" smooth="yes"/>
      <point x="217" y="46"/>
      <point x="218" y="57"/>
      <point x="239" y="57" type="curve"/>
      <point x="314" y="23"/>
      <point x="433" y="0"/>
      <point x="544" y="0" type="curve" smooth="yes"/>
      <point x="598" y="0"/>
      <point x="623" y="28"/>
      <point x="630" y="65" type="curve"/>
      <point x="663" y="22"/>
      <point x="714" y="0"/>
      <point x="806" y="0" type="curve" smooth="yes"/>
      <point x="841" y="0" type="line"/>
      <point x="850" y="13"/>
      <point x="860" y="41"/>
      <point x="860" y="68" type="curve" smooth="yes"/>
      <point x="860" y="99"/>
      <point x="852" y="126"/>
      <point x="840" y="140" type="curve"/>
    </contour>
  </outline>
</glyph>
<glyph name="Meem.init.ur" format="1">
  <advance width="671"/>
  <outline>
    <contour>
      <point x="380" y="316" type="curve"/>
      <point x="395" y="316"/>
      <point x="405" y="303"/>
      <point x="420" y="274" type="curve" smooth="yes"/>
      <point x="439" y="237"/>
      <point x="457" y="185"/>
      <point x="457" y="161" type="curve" smooth="yes"/>
      <point x="457" y="148"/>
      <point x="443" y="142"/>
      <point x="408" y="142" type="curve" smooth="yes"/>
      <point x="362" y="142"/>
      <point x="301" y="156"/>
      <point x="274" y="168" type="curve"/>
      <point x="296" y="214"/>
      <point x="319" y="250"/>
      <point x="339" y="280" type="curve" smooth="yes"/>
      <point x="358" y="308"/>
      <point x="368" y="316"/>
    </contour>
    <contour>
      <point x="185" y="49" type="curve"/>
      <point x="240" y="19"/>
      <point x="339" y="0"/>
      <point x="425" y="0" type="curve" smooth="yes"/>
      <point x="592" y="0"/>
      <point x="631" y="53"/>
      <point x="631" y="106" type="curve" smooth="yes"/>
      <point x="631" y="165"/>
      <point x="606" y="245"/>
      <point x="575" y="311" type="curve" smooth="yes"/>
      <point x="521" y="424"/>
      <point x="472" y="463"/>
      <point x="375" y="463" type="curve" smooth="yes"/>
      <point x="252" y="463"/>
      <point x="193" y="353"/>
      <point x="95" y="181" type="curve" smooth="yes"/>
      <point x="78" y="151"/>
      <point x="54" y="140"/>
      <point x="24" y="140" type="curve" smooth="yes"/>
      <point x="-3" y="140" type="line"/>
      <point x="-8" y="123"/>
      <point x="-10" y="107"/>
      <point x="-10" y="90" type="curve" smooth="yes"/>
      <point x="-10" y="51"/>
      <point x="8" y="17"/>
      <point x="33" y="0" type="curve"/>
      <point x="125" y="0"/>
      <point x="165" y="23"/>
    </contour>
  </outline>
</glyph>
<glyph name="Meem.medi.ur" format="1">
  <advance width="656"/>
  <outline>
    <contour>
      <point x="657" y="140" type="line"/>
      <point x="621" y="140"/>
      <point x="600" y="182"/>
      <point x="572" y="249" type="curve" smooth="yes"/>
      <point x="505" y="409"/>
      <point x="458" y="463"/>
      <point x="345" y="463" type="curve" smooth="yes"/>
      <point x="224" y="463"/>
      <point x="167" y="385"/>
      <point x="76" y="206" type="curve" smooth="yes"/>
      <point x="51" y="157" type="line" smooth="yes"/>
      <point x="45" y="145"/>
      <point x="27" y="140"/>
      <point x="13" y="140" type="curve" smooth="yes"/>
      <point x="-2" y="140" type="line"/>
      <point x="-7" y="123"/>
      <point x="-9" y="107"/>
      <point x="-9" y="90" type="curve" smooth="yes"/>
      <point x="-9" y="51"/>
      <point x="9" y="17"/>
      <point x="34" y="0" type="curve"/>
      <point x="61" y="0" type="line" smooth="yes"/>
      <point x="96" y="0"/>
      <point x="139" y="16"/>
      <point x="160" y="32" type="curve"/>
      <point x="229" y="12"/>
      <point x="314" y="0"/>
      <point x="395" y="0" type="curve" smooth="yes"/>
      <point x="449" y="0"/>
      <point x="474" y="28"/>
      <point x="481" y="65" type="curve"/>
      <point x="514" y="22"/>
      <point x="565" y="0"/>
      <point x="657" y="0" type="curve" smooth="yes"/>
      <point x="692" y="0" type="line"/>
      <point x="701" y="13"/>
      <point x="711" y="41"/>
      <point x="711" y="68" type="curve" smooth="yes"/>
      <point x="711" y="99"/>
      <point x="703" y="126"/>
      <point x="691" y="140" type="curve"/>
    </contour>
    <contour>
      <point x="436" y="144" type="curve"/>
      <point x="420" y="143"/>
      <point x="395" y="142"/>
      <point x="378" y="142" type="curve" smooth="yes"/>
      <point x="332" y="142"/>
      <point x="272" y="152"/>
      <point x="238" y="162" type="curve"/>
      <point x="273" y="248"/>
      <point x="326" y="316"/>
      <point x="347" y="316" type="curve" smooth="yes"/>
      <point x="364" y="316"/>
      <point x="393" y="285"/>
    </contour>
  </outline>
</glyph>
<glyph name="Peh.fina.ur" format="1">
  <advance width="950"/>
  <outline>
    <contour>
      <point x="436" y="140" type="line"/>
      <point x="281" y="140"/>
      <point x="218" y="179"/>
      <point x="218" y="306" type="curve" smooth="yes"/>
      <point x="218" y="357"/>
      <point x="220" y="379"/>
      <point x="224" y="419" type="curve"/>
      <point x="199" y="425"/>
      <point x="174" y="429"/>
      <point x="148" y="429" type="curve" smooth="yes"/>
      <point x="75" y="429"/>
      <point x="40" y="409"/>
      <point x="40" y="289" type="curve" smooth="yes"/>
      <point x="40" y="102"/>
      <point x="137" y="0"/>
      <point x="393" y="0" type="curve" smooth="yes"/>
      <point x="562" y="0" type="line" smooth="yes"/>
      <point x="655" y="0"/>
      <point x="736" y="15"/>
      <point x="796" y="53" type="curve"/>
      <point x="831" y="24"/>
      <point x="900" y="0"/>
      <point x="970" y="0" type="curve" smooth="yes"/>
      <point x="987" y="0" type="line"/>
      <point x="996" y="13"/>
      <point x="1005" y="41"/>
      <point x="1005" y="68" type="curve" smooth="yes"/>
      <point x="1005" y="99"/>
      <point x="998" y="126"/>
      <point x="986" y="140" type="curve"/>
      <point x="961" y="140" type="line" smooth="yes"/>
      <point x="934" y="140"/>
      <point x="902" y="147"/>
      <point x="886" y="159" type="curve"/>
      <point x="899" y="192"/>
      <point x="906" y="232"/>
      <point x="906" y="279" type="curve" smooth="yes"/>
      <point x="906" y="356"/>
      <point x="877" y="387"/>
      <point x="799" y="387" type="curve" smooth="yes"/>
      <point x="773" y="387"/>
      <point x="745" y="382"/>
      <point x="728" y="377" type="curve"/>
      <point x="728" y="326" type="line" smooth="yes"/>
      <point x="728" y="185"/>
      <point x="687" y="140"/>
      <point x="522" y="140" type="curve" smooth="yes"/>
    </contour>
    <contour>
      <point x="388" y="-57" type="curve"/>
      <point x="339" y="-57"/>
      <point x="310" y="-89"/>
      <point x="310" y="-131" type="curve" smooth="yes"/>
      <point x="310" y="-175"/>
      <point x="343" y="-206"/>
      <point x="388" y="-206" type="curve" smooth="yes"/>
      <point x="432" y="-206"/>
      <point x="466" y="-175"/>
      <point x="466" y="-131" type="curve" smooth="yes"/>
      <point x="466" y="-89"/>
      <point x="435" y="-57"/>
    </contour>
    <contour>
      <point x="572" y="-57" type="curve"/>
      <point x="523" y="-57"/>
      <point x="494" y="-89"/>
      <point x="494" y="-131" type="curve" smooth="yes"/>
      <point x="494" y="-175"/>
      <point x="527" y="-206"/>
      <point x="572" y="-206" type="curve" smooth="yes"/>
      <point x="616" y="-206"/>
      <point x="650" y="-175"/>
      <point x="650" y="-131" type="curve" smooth="yes"/>
      <point x="650" y="-89"/>
      <point x="619" y="-57"/>
    </contour>
    <contour>
      <point x="481" y="-208" type="curve"/>
      <point x="434" y="-208"/>
      <point x="404" y="-239"/>
      <point x="404" y="-277" type="curve" smooth="yes"/>
      <point x="404" y="-319"/>
      <point x="438" y="-347"/>
      <point x="481" y="-347" type="curve" smooth="yes"/>
      <point x="523" y="-347"/>
      <point x="558" y="-319"/>
      <point x="558" y="-277" type="curve" smooth="yes"/>
      <point x="558" y="-239"/>
      <point x="526" y="-208"/>
    </contour>
  </outline>
</glyph>
<glyph name="Seh.init.ur" format="1">
  <advance width="380"/>
  <outline>
    <contour>
      <point x="-2" y="140" type="line"/>
      <point x="-7" y="123"/>
      <point x="-9" y="107"/>
      <point x="-9" y="90" type="curve" smooth="yes"/>
      <point x="-9" y="51"/>
      <point x="9" y="17"/>
      <point x="34" y="0" type="curve"/>
      <point x="74" y="0" type="line" smooth="yes"/>
      <point x="240" y="0"/>
      <point x="340" y="103"/>
      <point x="340" y="285" type="curve" smooth="yes"/>
      <point x="340" y="430"/>
      <point x="297" y="449"/>
      <point x="233" y="449" type="curve" smooth="yes"/>
      <point x="210" y="449"/>
      <point x="180" y="446"/>
      <point x="154" y="439" type="curve"/>
      <point x="157" y="407"/>
      <point x="160" y="354"/>
      <point x="160" y="286" type="curve" smooth="yes"/>
      <point x="160" y="196"/>
      <point x="119" y="140"/>
      <point x="52" y="140" type="curve" smooth="yes"/>
    </contour>
    <contour>
      <point x="268" y="513" type="curve" smooth="yes"/>
      <point x="317" y="513"/>
      <point x="346" y="545"/>
      <point x="346" y="587" type="curve" smooth="yes"/>
      <point x="346" y="631"/>
      <point x="313" y="662"/>
      <point x="268" y="662" type="curve" smooth="yes"/>
      <point x="224" y="662"/>
      <point x="190" y="631"/>
      <point x="190" y="587" type="curve" smooth="yes"/>
      <point x="190" y="545"/>
      <point x="221" y="513"/>
    </contour>
    <contour>
      <point x="84" y="513" type="curve" smooth="yes"/>
      <point x="133" y="513"/>
      <point x="162" y="545"/>
      <point x="162" y="587" type="curve" smooth="yes"/>
      <point x="162" y="631"/>
      <point x="129" y="662"/>
      <point x="84" y="662" type="curve" smooth="yes"/>
      <point x="40" y="662"/>
      <point x="6" y="631"/>
      <point x="6" y="587" type="curve" smooth="yes"/>
      <point x="6" y="545"/>
      <point x="37" y="513"/>
    </contour>
    <contour>
      <point x="175" y="664" type="curve" smooth="yes"/>
      <point x="222" y="664"/>
      <point x="252" y="695"/>
      <point x="252" y="733" type="curve" smooth="yes"/>
      <point x="252" y="775"/>
      <point x="218" y="803"/>
      <point x="175" y="803" type="curve" smooth="yes"/>
      <point x="133" y="803"/>
      <point x="98" y="775"/>
      <point x="98" y="733" type="curve" smooth="yes"/>
      <point x="98" y="695"/>
      <point x="130" y="664"/>
    </contour>
  </outline>
</glyph>
<glyph name="Swad.init.ur" format="1">
  <advance width="900"/>
  <outline>
    <contour>
      <point x="-2" y="140" type="line"/>
      <point x="-7" y="123"/>
      <point x="-9" y="107"/>
      <point x="-9" y="90" type="curve" smooth="yes"/>
      <point x="-9" y="51"/>
      <point x="9" y="17"/>
      <point x="34" y="0" type="curve"/>
      <point x="74" y="0" type="line" smooth="yes"/>
      <point x="143" y="0"/>
      <point x="201" y="17"/>
      <point x="244" y="52" type="curve"/>
      <point x="309" y="22"/>
      <point x="395" y="0"/>
      <point x="500" y="0" type="curve" smooth="yes"/>
      <point x="724" y="0"/>
      <point x="860" y="104"/>
      <point x="860" y="262" type="curve" smooth="yes"/>
      <point x="860" y="398"/>
      <point x="755" y="471"/>
      <point x="622" y="471" type="curve" smooth="yes"/>
      <point x="502" y="471"/>
      <point x="411" y="428"/>
      <point x="331" y="362" type="curve"/>
      <point x="318" y="437"/>
      <point x="283" y="449"/>
      <point x="233" y="449" type="curve" smooth="yes"/>
      <point x="210" y="449"/>
      <point x="180" y="446"/>
      <point x="154" y="439" type="curve"/>
      <point x="157" y="407"/>
      <point x="160" y="354"/>
      <point x="160" y="286" type="curve" smooth="yes"/>
      <point x="160" y="196"/>
      <point x="119" y="143"/>
      <point x="52" y="140" type="curve"/>
    </contour>
    <contour>
      <point x="677" y="258" type="curve"/>
      <point x="677" y="183"/>
      <point x="569" y="146"/>
      <point x="473" y="146" type="curve" smooth="yes"/>
      <point x="406" y="146"/>
      <point x="349" y="159"/>
      <point x="318" y="172" type="curve"/>
      <point x="390" y="261"/>
      <point x="505" y="324"/>
      <point x="589" y="324" type="curve" smooth="yes"/>
      <point x="637" y="324"/>
      <point x="677" y="306"/>
    </contour>
  </outline>
</glyph>
<glyph name="Tcheh.fina.ur" format="1">
  <advance width="623"/>
  <outline>
    <contour>
      <point x="222" y="-88" type="curve"/>
      <point x="222" y="-35"/>
      <point x="259" y="0"/>
      <point x="330" y="0" type="curve" smooth="yes"/>
      <point x="662" y="0" type="line"/>
      <point x="670" y="13"/>
      <point x="680" y="41"/>
      <point x="680" y="68" type="curve" smooth="yes"/>
      <point x="680" y="99"/>
      <point x="672" y="126"/>
      <point x="661" y="140" type="curve"/>
      <point x="585" y="140" type="line"/>
      <point x="576" y="318"/>
      <point x="421" y="469"/>
      <point x="254" y="469" type="curve" smooth="yes"/>
      <point x="181" y="469"/>
      <point x="141" y="438"/>
      <point x="141" y="386" type="curve" smooth="yes"/>
      <point x="141" y="355"/>
      <point x="150" y="334"/>
      <point x="159" y="319" type="curve"/>
      <point x="181" y="319" type="line" smooth="yes"/>
      <point x="297" y="319"/>
      <point x="399" y="247"/>
      <point x="401" y="140" type="curve"/>
      <point x="316" y="140" type="line" smooth="yes"/>
      <point x="135" y="140"/>
      <point x="40" y="45"/>
      <point x="40" y="-90" type="curve" smooth="yes"/>
      <point x="40" y="-232"/>
      <point x="134" y="-295"/>
      <point x="203" y="-295" type="curve" smooth="yes"/>
      <point x="265" y="-295"/>
      <point x="292" y="-253"/>
      <point x="292" y="-206" type="curve"/>
      <point x="259" y="-183"/>
      <point x="222" y="-154"/>
    </contour>
    <contour>
      <point x="400" y="-57" type="curve"/>
      <point x="351" y="-57"/>
      <point x="322" y="-89"/>
      <point x="322" y="-131" type="curve" smooth="yes"/>
      <point x="322" y="-175"/>
      <point x="355" y="-206"/>
      <point x="400" y="-206" type="curve" smooth="yes"/>
      <point x="444" y="-206"/>
      <point x="478" y="-175"/>
      <point x="478" y="-131" type="curve" smooth="yes"/>
      <point x="478" y="-89"/>
      <point x="447" y="-57"/>
    </contour>
    <contour>
      <point x="584" y="-57" type="curve"/>
      <point x="535" y="-57"/>
      <point x="506" y="-89"/>
      <point x="506" y="-131" type="curve" smooth="yes"/>
      <point x="506" y="-175"/>
      <point x="539" y="-206"/>
      <point x="584" y="-206" type="curve" smooth="yes"/>
      <point x="628" y="-206"/>
      <point x="662" y="-175"/>
      <point x="662" y="-131" type="curve" smooth="yes"/>
      <point x="662" y="-89"/>
      <point x="631" y="-57"/>
    </contour>
    <contour>
      <point x="493" y="-208" type="curve"/>
      <point x="446" y="-208"/>
      <point x="416" y="-239"/>
      <point x="416" y="-277" type="curve" smooth="yes"/>
      <point x="416" y="-319"/>
      <point x="450" y="-347"/>
      <point x="493" y="-347" type="curve" smooth="yes"/>
      <point x="535" y="-347"/>
      <point x="570" y="-319"/>
      <point x="570" y="-277" type="curve" smooth="yes"/>
      <point x="570" y="-239"/>
      <point x="538" y="-208"/>
    </contour>
  </outline>
</glyph>
<glyph name="Teh.fina.ur" format="1">
  <advance width="950"/>
  <outline>
    <contour>
      <point x="436" y="140" type="line"/>
      <point x="281" y="140"/>
      <point x="218" y="179"/>
      <point x="218" y="306" type="curve" smooth="yes"/>
      <point x="218" y="357"/>
      <point x="220" y="379"/>
      <point x="224" y="419" type="curve"/>
      <point x="199" y="425"/>
      <point x="174" y="429"/>
      <point x="148" y="429" type="curve" smooth="yes"/>
      <point x="75" y="429"/>
      <point x="40" y="409"/>
      <point x="40" y="289" type="curve" smooth="yes"/>
      <point x="40" y="102"/>
      <point x="137" y="0"/>
      <point x="393" y="0" type="curve" smooth="yes"/>
      <point x="562" y="0" type="line" smooth="yes"/>
      <point x="655" y="0"/>
      <point x="736" y="15"/>
      <point x="796" y="53" type="curve"/>
      <point x="831" y="24"/>
      <point x="900" y="0"/>
      <point x="970" y="0" type="curve" smooth="yes"/>
      <point x="987" y="0" type="line"/>
      <point x="996" y="13"/>
      <point x="1005" y="41"/>
      <point x="1005" y="68" type="curve" smooth="yes"/>
      <point x="1005" y="99"/>
      <point x="998" y="126"/>
      <point x="986" y="140" type="curve"/>
      <point x="961" y="140" type="line" smooth="yes"/>
      <point x="934" y="140"/>
      <point x="902" y="147"/>
      <point x="886" y="159" type="curve"/>
      <point x="899" y="192"/>
      <point x="906" y="232"/>
      <point x="906" y="279" type="curve" smooth="yes"/>
      <point x="906" y="356"/>
      <point x="877" y="387"/>
      <point x="799" y="387" type="curve" smooth="yes"/>
      <point x="773" y="387"/>
      <point x="745" y="382"/>
      <point x="728" y="377" type="curve"/>
      <point x="728" y="326" type="line" smooth="yes"/>
      <point x="728" y="185"/>
      <point x="687" y="140"/>
      <point x="522" y="140" type="curve" smooth="yes"/>
    </contour>
    <contour>
      <point x="571" y="391" type="curve"/>
      <point x="621" y="391"/>
      <point x="651" y="424"/>
      <point x="651" y="467" type="curve" smooth="yes"/>
      <point x="651" y="512"/>
      <point x="617" y="544"/>
      <point x="571" y="544" type="curve" smooth="yes"/>
      <point x="526" y="544"/>
      <point x="491" y="512"/>
      <point x="491" y="467" type="curve" smooth="yes"/>
      <point x="491" y="424"/>
      <point x="523" y="391"/>
    </contour>
    <contour>
      <point x="382" y="391" type="curve"/>
      <point x="432" y="391"/>
      <point x="462" y="424"/>
      <point x="462" y="467" type="curve" smooth="yes"/>
      <point x="462" y="512"/>
      <point x="428" y="544"/>
      <point x="382" y="544" type="curve" smooth="yes"/>
      <point x="337" y="544"/>
      <point x="302" y="512"/>
      <point x="302" y="467" type="curve" smooth="yes"/>
      <point x="302" y="424"/>
      <point x="334" y="391"/>
    </contour>
  </outline>
</glyph>
<glyph name="Tteh.fina.ur" format="1">
  <advance width="950"/>
  <outline>
    <contour>
      <point x="436" y="140" type="line"/>
      <point x="281" y="140"/>
      <point x="218" y="179"/>
      <point x="218" y="306" type="curve" smooth="yes"/>
      <point x="218" y="357"/>
      <point x="220" y="379"/>
      <point x="224" y="419" type="curve"/>
      <point x="199" y="425"/>
      <point x="174" y="429"/>
      <point x="148" y="429" type="curve" smooth="yes"/>
      <point x="75" y="429"/>
      <point x="40" y="409"/>
      <point x="40" y="289" type="curve" smooth="yes"/>
      <point x="40" y="102"/>
      <point x="137" y="0"/>
      <point x="393" y="0" type="curve" smooth="yes"/>
      <point x="562" y="0" type="line" smooth="yes"/>
      <point x="655" y="0"/>
      <point x="736" y="15"/>
      <point x="796" y="53" type="curve"/>
      <point x="831" y="24"/>
      <point x="900" y="0"/>
      <point x="970" y="0" type="curve" smooth="yes"/>
      <point x="987" y="0" type="line"/>
      <point x="996" y="13"/>
      <point x="1005" y="41"/>
      <point x="1005" y="68" type="curve" smooth="yes"/>
      <point x="1005" y="99"/>
      <point x="998" y="126"/>
      <point x="986" y="140" type="curve"/>
      <point x="961" y="140" type="line" smooth="yes"/>
      <point x="934" y="140"/>
      <point x="902" y="147"/>
      <point x="886" y="159" type="curve"/>
      <point x="899" y="192"/>
      <point x="906" y="232"/>
      <point x="906" y="279" type="curve" smooth="yes"/>
      <point x="906" y="356"/>
      <point x="877" y="387"/>
      <point x="799" y="387" type="curve" smooth="yes"/>
      <point x="773" y="387"/>
      <point x="745" y="382"/>
      <point x="728" y="377" type="curve"/>
      <point x="728" y="326" type="line" smooth="yes"/>
      <point x="728" y="185"/>
      <point x="687" y="140"/>
      <point x="522" y="140" type="curve" smooth="yes"/>
    </contour>
    <contour>
      <point x="373" y="467" type="curve"/>
      <point x="356" y="469"/>
      <point x="340" y="472"/>
      <point x="331" y="474" type="curve"/>
      <point x="324" y="464"/>
      <point x="318" y="446"/>
      <point x="318" y="432" type="curve" smooth="yes"/>
      <point x="318" y="400"/>
      <point x="333" y="394"/>
      <point x="352" y="387" type="curve" smooth="yes"/>
      <point x="382" y="376"/>
      <point x="447" y="368"/>
      <point x="479" y="368" type="curve" smooth="yes"/>
      <point x="590" y="368"/>
      <point x="649" y="407"/>
      <point x="649" y="475" type="curve" smooth="yes"/>
      <point x="649" y="527"/>
      <point x="609" y="566"/>
      <point x="552" y="566" type="curve" smooth="yes"/>
      <point x="521" y="566"/>
      <point x="497" y="561"/>
      <point x="471" y="546" type="curve"/>
      <point x="471" y="588" type="line" smooth="yes"/>
      <point x="471" y="625"/>
      <point x="439" y="631"/>
      <point x="413" y="631" type="curve" smooth="yes"/>
      <point x="399" y="631"/>
      <point x="389" y="630"/>
      <point x="374" y="627" type="curve"/>
      <point x="374" y="620"/>
    </contour>
    <contour>
      <point x="550" y="473" type="curve"/>
      <point x="550" y="455"/>
      <point x="523" y="447"/>
      <point x="483" y="447" type="curve" smooth="yes"/>
      <point x="475" y="447"/>
      <point x="462" y="448"/>
      <point x="456" y="448" type="curve"/>
      <point x="471" y="471"/>
      <point x="501" y="490"/>
      <point x="527" y="490" type="curve" smooth="yes"/>
      <point x="541" y="490"/>
      <point x="550" y="485"/>
    </contour>
  </outline>
</glyph>
<glyph name="Tteh.init.ur" format="1">
  <advance width="380"/>
  <outline>
    <contour>
      <point x="-2" y="140" type="line"/>
      <point x="-7" y="123"/>
      <point x="-9" y="107"/>
      <point x="-9" y="90" type="curve" smooth="yes"/>
      <point x="-9" y="51"/>
      <point x="9" y="17"/>
      <point x="34" y="0" type="curve"/>
      <point x="74" y="0" type="line" smooth="yes"/>
      <point x="240" y="0"/>
      <point x="340" y="103"/>
      <point x="340" y="285" type="curve" smooth="yes"/>
      <point x="340" y="430"/>
      <point x="297" y="449"/>
      <point x="233" y="449" type="curve" smooth="yes"/>
      <point x="210" y="449"/>
      <point x="180" y="446"/>
      <point x="154" y="439" type="curve"/>
      <point x="157" y="407"/>
      <point x="160" y="354"/>
      <point x="160" y="286" type="curve" smooth="yes"/>
      <point x="160" y="196"/>
      <point x="119" y="140"/>
      <point x="52" y="140" type="curve" smooth="yes"/>
    </contour>
    <contour>
      <point x="60" y="609" type="curve"/>
      <point x="43" y="611"/>
      <point x="27" y="614"/>
      <point x="18" y="616" type="curve"/>
      <point x="11" y="606"/>
      <point x="5" y="588"/>
      <point x="5" y="574" type="curve" smooth="yes"/>
      <point x="5" y="542"/>
      <point x="20" y="536"/>
      <point x="39" y="529" type="curve" smooth="yes"/>
      <point x="69" y="518"/>
      <point x="134" y="510"/>
      <point x="166" y="510" type="curve" smooth="yes"/>
      <point x="277" y="510"/>
      <point x="336" y="549"/>
      <point x="336" y="617" type="curve" smooth="yes"/>
      <point x="336" y="669"/>
      <point x="296" y="708"/>
      <point x="239" y="708" type="curve" smooth="yes"/>
      <point x="208" y="708"/>
      <point x="184" y="703"/>
      <point x="158" y="688" type="curve"/>
      <point x="158" y="730" type="line" smooth="yes"/>
      <point x="158" y="767"/>
      <point x="126" y="773"/>
      <point x="100" y="773" type="curve" smooth="yes"/>
      <point x="86" y="773"/>
      <point x="76" y="772"/>
      <point x="61" y="769" type="curve"/>
      <point x="61" y="762"/>
    </contour>
    <contour>
      <point x="237" y="615" type="curve"/>
      <point x="237" y="597"/>
      <point x="210" y="589"/>
      <point x="170" y="589" type="curve" smooth="yes"/>
      <point x="162" y="589"/>
      <point x="149" y="590"/>
      <point x="143" y="590" type="curve"/>
      <point x="158" y="613"/>
      <point x="188" y="632"/>
      <point x="214" y="632" type="curve" smooth="yes"/>
      <point x="228" y="632"/>
      <point x="237" y="627"/>
    </contour>
  </outline>
</glyph>
<glyph name="Tteh.medi.ur" format="1">
  <advance width="392"/>
  <outline>
    <contour>
      <point x="80" y="0" type="line"/>
      <point x="146" y="0"/>
      <point x="200" y="18"/>
      <point x="240" y="51" type="curve"/>
      <point x="282" y="17"/>
      <point x="341" y="0"/>
      <point x="422" y="0" type="curve" smooth="yes"/>
      <point x="429" y="0" type="line"/>
      <point x="438" y="13"/>
      <point x="448" y="41"/>
      <point x="448" y="68" type="curve" smooth="yes"/>
      <point x="448" y="99"/>
      <point x="440" y="126"/>
      <point x="428" y="140" type="curve"/>
      <point x="404" y="140" type="line" smooth="yes"/>
      <point x="374" y="140"/>
      <point x="329" y="150"/>
      <point x="312" y="163" type="curve"/>
      <point x="323" y="198"/>
      <point x="329" y="236"/>
      <point x="329" y="279" type="curve" smooth="yes"/>
      <point x="329" y="367"/>
      <point x="297" y="390"/>
      <point x="225" y="390" type="curve" smooth="yes"/>
      <point x="199" y="390"/>
      <point x="176" y="386"/>
      <point x="149" y="379" type="curve"/>
      <point x="151" y="352"/>
      <point x="152" y="307"/>
      <point x="152" y="276" type="curve" smooth="yes"/>
      <point x="152" y="177"/>
      <point x="102" y="141"/>
      <point x="42" y="140" type="curve"/>
      <point x="-2" y="140" type="line"/>
      <point x="-7" y="123"/>
      <point x="-9" y="107"/>
      <point x="-9" y="90" type="curve" smooth="yes"/>
      <point x="-9" y="51"/>
      <point x="9" y="17"/>
      <point x="34" y="0" type="curve"/>
    </contour>
    <contour>
      <point x="124" y="539" type="curve"/>
      <point x="107" y="541"/>
      <point x="91" y="544"/>
      <point x="82" y="546" type="curve"/>
      <point x="75" y="536"/>
      <point x="69" y="518"/>
      <point x="69" y="504" type="curve" smooth="yes"/>
      <point x="69" y="472"/>
      <point x="84" y="466"/>
      <point x="103" y="459" type="curve" smooth="yes"/>
      <point x="133" y="448"/>
      <point x="198" y="440"/>
      <point x="230" y="440" type="curve" smooth="yes"/>
      <point x="341" y="440"/>
      <point x="400" y="479"/>
      <point x="400" y="547" type="curve" smooth="yes"/>
      <point x="400" y="599"/>
      <point x="360" y="638"/>
      <point x="303" y="638" type="curve" smooth="yes"/>
      <point x="272" y="638"/>
      <point x="248" y="633"/>
      <point x="222" y="618" type="curve"/>
      <point x="222" y="660" type="line" smooth="yes"/>
      <point x="222" y="697"/>
      <point x="190" y="703"/>
      <point x="164" y="703" type="curve" smooth="yes"/>
      <point x="150" y="703"/>
      <point x="140" y="702"/>
      <point x="125" y="699" type="curve"/>
      <point x="125" y="692"/>
    </contour>
    <contour>
      <point x="301" y="545" type="curve"/>
      <point x="301" y="527"/>
      <point x="274" y="519"/>
      <point x="234" y="519" type="curve" smooth="yes"/>
      <point x="226" y="519"/>
      <point x="213" y="520"/>
      <point x="207" y="520" type="curve"/>
      <point x="222" y="543"/>
      <point x="252" y="562"/>
      <point x="278" y="562" type="curve" smooth="yes"/>
      <point x="292" y="562"/>
      <point x="301" y="557"/>
    </contour>
  </outline>
</glyph>
<glyph name="Waw.fina.ur" format="1">
  <advance width="576"/>
  <outline>
    <contour>
      <point x="347" y="0" type="line"/>
      <point x="323" y="-65"/>
      <point x="251" y="-100"/>
      <point x="138" y="-100" type="curve" smooth="yes"/>
      <point x="106" y="-100" type="line"/>
      <point x="97" y="-119"/>
      <point x="93" y="-138"/>
      <point x="93" y="-159" type="curve" smooth="yes"/>
      <point x="93" y="-203"/>
      <point x="111" y="-238"/>
      <point x="177" y="-238" type="curve" smooth="yes"/>
      <point x="322" y="-238"/>
      <point x="463" y="-177"/>
      <point x="515" y="0" type="curve"/>
      <point x="612" y="0" type="line"/>
      <point x="621" y="13"/>
      <point x="631" y="41"/>
      <point x="631" y="68" type="curve" smooth="yes"/>
      <point x="631" y="99"/>
      <point x="623" y="126"/>
      <point x="611" y="140" type="curve"/>
      <point x="535" y="140" type="line"/>
      <point x="535" y="147"/>
      <point x="536" y="154"/>
      <point x="536" y="162" type="curve" smooth="yes"/>
      <point x="536" y="356"/>
      <point x="444" y="463"/>
      <point x="289" y="463" type="curve" smooth="yes"/>
      <point x="147" y="463"/>
      <point x="39" y="371"/>
      <point x="39" y="214" type="curve" smooth="yes"/>
      <point x="39" y="64"/>
      <point x="151" y="0"/>
      <point x="300" y="0" type="curve" smooth="yes"/>
    </contour>
    <contour>
      <point x="323" y="134" type="line" smooth="yes"/>
      <point x="254" y="134"/>
      <point x="215" y="159"/>
      <point x="215" y="221" type="curve" smooth="yes"/>
      <point x="215" y="287"/>
      <point x="248" y="317"/>
      <point x="292" y="317" type="curve" smooth="yes"/>
      <point x="328" y="317"/>
      <point x="360" y="294"/>
      <point x="360" y="185" type="curve" smooth="yes"/>
      <point x="360" y="168"/>
      <point x="358" y="147"/>
      <point x="356" y="134" type="curve"/>
    </contour>
  </outline>
</glyph>
<glyph name="YeChoti.fina.ur" format="1">
  <advance width="799"/>
  <outline>
    <contour>
      <point x="723" y="-58" type="curve" smooth="yes"/>
      <point x="723" y="-31"/>
      <point x="720" y="-4"/>
      <point x="712" y="14" type="curve"/>
      <point x="740" y="4"/>
      <point x="759" y="0"/>
      <point x="823" y="0" type="curve" smooth="yes"/>
      <point x="836" y="0" type="line"/>
      <point x="845" y="13"/>
      <point x="855" y="41"/>
      <point x="855" y="68" type="curve" smooth="yes"/>
      <point x="855" y="99"/>
      <point x="847" y="126"/>
      <point x="835" y="140" type="curve"/>
      <point x="820" y="140" type="line" smooth="yes"/>
      <point x="727" y="140"/>
      <point x="647" y="163"/>
      <point x="585" y="201" type="curve"/>
      <point x="533" y="189"/>
      <point x="491" y="129"/>
      <point x="486" y="78" type="curve"/>
      <point x="517" y="52"/>
      <point x="547" y="28"/>
      <point x="547" y="-13" type="curve"/>
      <point x="547" y="-75"/>
      <point x="497" y="-102"/>
      <point x="418" y="-102" type="curve" smooth="yes"/>
      <point x="294" y="-102"/>
      <point x="223" y="-52"/>
      <point x="223" y="135" type="curve" smooth="yes"/>
      <point x="223" y="164"/>
      <point x="224" y="237"/>
      <point x="225" y="263" type="curve"/>
      <point x="206" y="270"/>
      <point x="178" y="274"/>
      <point x="154" y="274" type="curve" smooth="yes"/>
      <point x="85" y="274"/>
      <point x="40" y="252"/>
      <point x="40" y="100" type="curve" smooth="yes"/>
      <point x="40" y="-134"/>
      <point x="168" y="-254"/>
      <point x="409" y="-254" type="curve" smooth="yes"/>
      <point x="642" y="-254"/>
      <point x="723" y="-157"/>
    </contour>
  </outline>
</glyph>
<glyph name="YeChoti.medi.ur" format="1">
  <advance width="392"/>
  <outline>
    <contour>
      <point x="88" y="0" type="line"/>
      <point x="154" y="0"/>
      <point x="208" y="18"/>
      <point x="248" y="51" type="curve"/>
      <point x="290" y="17"/>
      <point x="349" y="0"/>
      <point x="430" y="0" type="curve" smooth="yes"/>
      <point x="437" y="0" type="line"/>
      <point x="446" y="13"/>
      <point x="456" y="41"/>
      <point x="456" y="68" type="curve" smooth="yes"/>
      <point x="456" y="99"/>
      <point x="448" y="126"/>
      <point x="436" y="140" type="curve"/>
      <point x="412" y="140" type="line" smooth="yes"/>
      <point x="382" y="140"/>
      <point x="337" y="150"/>
      <point x="320" y="163" type="curve"/>
      <point x="331" y="198"/>
      <point x="337" y="236"/>
      <point x="337" y="279" type="curve" smooth="yes"/>
      <point x="337" y="367"/>
      <point x="305" y="390"/>
      <point x="233" y="390" type="curve" smooth="yes"/>
      <point x="207" y="390"/>
      <point x="184" y="386"/>
      <point x="157" y="379" type="curve"/>
      <point x="159" y="352"/>
      <point x="160" y="307"/>
      <point x="160" y="276" type="curve" smooth="yes"/>
      <point x="160" y="177"/>
      <point x="110" y="141"/>
      <point x="50" y="140" type="curve"/>
      <point x="6" y="140" type="line"/>
      <point x="1" y="123"/>
      <point x="-1" y="107"/>
      <point x="-1" y="90" type="curve" smooth="yes"/>
      <point x="-1" y="51"/>
      <point x="17" y="17"/>
      <point x="42" y="0" type="curve"/>
    </contour>
    <contour>
      <point x="203" y="-215" type="curve"/>
      <point x="253" y="-215"/>
      <point x="283" y="-182"/>
      <point x="283" y="-139" type="curve" smooth="yes"/>
      <point x="283" y="-94"/>
      <point x="249" y="-62"/>
      <point x="203" y="-62" type="curve" smooth="yes"/>
      <point x="158" y="-62"/>
      <point x="123" y="-94"/>
      <point x="123" y="-139" type="curve" smooth="yes"/>
      <point x="123" y="-182"/>
      <point x="155" y="-215"/>
    </contour>
    <contour>
      <point x="14" y="-215" type="curve"/>
      <point x="64" y="-215"/>
      <point x="94" y="-182"/>
      <point x="94" y="-139" type="curve" smooth="yes"/>
      <point x="94" y="-94"/>
      <point x="60" y="-62"/>
      <point x="14" y="-62" type="curve" smooth="yes"/>
      <point x="-31" y="-62"/>
      <point x="-66" y="-94"/>
      <point x="-66" y="-139" type="curve" smooth="yes"/>
      <point x="-66" y="-182"/>
      <point x="-34" y="-215"/>
    </contour>
  </outline>
</glyph>
<glyph name="Zal.fina.ur" format="1">
  <advance width="527"/>
  <outline>
    <contour>
      <point x="58" y="140" type="line"/>
      <point x="49" y="126"/>
      <point x="40" y="99"/>
      <point x="40" y="71" type="curve" smooth="yes"/>
      <point x="40" y="21"/>
      <point x="65" y="0"/>
      <point x="101" y="0" type="curve" smooth="yes"/>
      <point x="257" y="0" type="line" smooth="yes"/>
      <point x="328" y="0"/>
      <point x="376" y="16"/>
      <point x="406" y="46" type="curve"/>
      <point x="437" y="18"/>
      <point x="481" y="0"/>
      <point x="551" y="0" type="curve" smooth="yes"/>
      <point x="564" y="0" type="line"/>
      <point x="573" y="13"/>
      <point x="583" y="41"/>
      <point x="583" y="68" type="curve" smooth="yes"/>
      <point x="583" y="99"/>
      <point x="575" y="126"/>
      <point x="563" y="140" type="curve"/>
      <point x="539" y="140" type="line" smooth="yes"/>
      <point x="501" y="140"/>
      <point x="461" y="154"/>
      <point x="445" y="195" type="curve"/>
      <point x="437" y="256"/>
      <point x="405" y="344"/>
      <point x="341" y="415" type="curve" smooth="yes"/>
      <point x="320" y="438"/>
      <point x="293" y="450"/>
      <point x="266" y="450" type="curve" smooth="yes"/>
      <point x="228" y="450"/>
      <point x="190" y="427"/>
      <point x="165" y="386" type="curve"/>
      <point x="191" y="350"/>
      <point x="269" y="238"/>
      <point x="269" y="178" type="curve" smooth="yes"/>
      <point x="269" y="152"/>
      <point x="252" y="140"/>
      <point x="214" y="140" type="curve" smooth="yes"/>
    </contour>
    <contour>
      <point x="271" y="500" type="curve"/>
      <point x="322" y="500"/>
      <point x="353" y="533"/>
      <point x="353" y="576" type="curve" smooth="yes"/>
      <point x="353" y="621"/>
      <point x="318" y="653"/>
      <point x="271" y="653" type="curve" smooth="yes"/>
      <point x="225" y="653"/>
      <point x="189" y="621"/>
      <point x="189" y="576" type="curve" smooth="yes"/>
      <point x="189" y="533"/>
      <point x="222" y="500"/>
    </contour>
  </outline>
</glyph>
<glyph name="Zoe.fina.ur" format="1">
  <advance width="936"/>
  <outline>
    <contour>
      <point x="949" y="140" type="line"/>
      <point x="908" y="140"/>
      <point x="882" y="145"/>
      <point x="866" y="163" type="curve"/>
      <point x="881" y="193"/>
      <point x="889" y="226"/>
      <point x="889" y="262" type="curve" smooth="yes"/>
      <point x="889" y="393"/>
      <point x="790" y="471"/>
      <point x="651" y="471" type="curve" smooth="yes"/>
      <point x="542" y="471"/>
      <point x="449" y="435"/>
      <point x="353" y="356" type="curve"/>
      <point x="355" y="393"/>
      <point x="357" y="427"/>
      <point x="357" y="451" type="curve" smooth="yes"/>
      <point x="357" y="531" type="line" smooth="yes"/>
      <point x="357" y="596"/>
      <point x="316" y="608"/>
      <point x="261" y="608" type="curve" smooth="yes"/>
      <point x="231" y="608"/>
      <point x="196" y="602"/>
      <point x="181" y="600" type="curve"/>
      <point x="181" y="175" type="line"/>
      <point x="149" y="181"/>
      <point x="106" y="192"/>
      <point x="70" y="203" type="curve"/>
      <point x="57" y="188"/>
      <point x="40" y="153"/>
      <point x="40" y="123" type="curve" smooth="yes"/>
      <point x="40" y="76"/>
      <point x="59" y="54"/>
      <point x="126" y="37" type="curve" smooth="yes"/>
      <point x="190" y="21"/>
      <point x="323" y="0"/>
      <point x="436" y="0" type="curve" smooth="yes"/>
      <point x="573" y="0"/>
      <point x="680" y="21"/>
      <point x="756" y="59" type="curve"/>
      <point x="802" y="16"/>
      <point x="864" y="0"/>
      <point x="967" y="0" type="curve" smooth="yes"/>
      <point x="974" y="0" type="line"/>
      <point x="983" y="13"/>
      <point x="993" y="41"/>
      <point x="993" y="68" type="curve" smooth="yes"/>
      <point x="993" y="99"/>
      <point x="985" y="126"/>
      <point x="973" y="140" type="curve"/>
    </contour>
    <contour>
      <point x="706" y="258" type="curve"/>
      <point x="706" y="183"/>
      <point x="593" y="146"/>
      <point x="472" y="146" type="curve" smooth="yes"/>
      <point x="420" y="146"/>
      <point x="391" y="146"/>
      <point x="347" y="155" type="curve"/>
      <point x="419" y="251"/>
      <point x="530" y="324"/>
      <point x="618" y="324" type="curve" smooth="yes"/>
      <point x="666" y="324"/>
      <point x="706" y="306"/>
    </contour>
    <contour>
      <point x="601" y="522" type="curve"/>
      <point x="652" y="522"/>
      <point x="683" y="555"/>
      <point x="683" y="598" type="curve" smooth="yes"/>
      <point x="683" y="643"/>
      <point x="648" y="675"/>
      <point x="601" y="675" type="curve" smooth="yes"/>
      <point x="555" y="675"/>
      <point x="519" y="643"/>
      <point x="519" y="598" type="curve" smooth="yes"/>
      <point x="519" y="555"/>
      <point x="552" y="522"/>
    </contour>
  </outline>
</glyph>
<glyph name="Zoe.init.ur" format="1">
  <advance width="810"/>
  <outline>
    <contour>
      <point x="532" y="471" type="curve"/>
      <point x="423" y="471"/>
      <point x="330" y="435"/>
      <point x="234" y="356" type="curve"/>
      <point x="236" y="393"/>
      <point x="238" y="427"/>
      <point x="238" y="451" type="curve" smooth="yes"/>
      <point x="238" y="531" type="line" smooth="yes"/>
      <point x="238" y="596"/>
      <point x="197" y="608"/>
      <point x="142" y="608" type="curve" smooth="yes"/>
      <point x="112" y="608"/>
      <point x="77" y="602"/>
      <point x="62" y="600" type="curve"/>
      <point x="62" y="140" type="line"/>
      <point x="-3" y="140" type="line"/>
      <point x="-8" y="123"/>
      <point x="-10" y="107"/>
      <point x="-10" y="90" type="curve" smooth="yes"/>
      <point x="-10" y="51"/>
      <point x="8" y="17"/>
      <point x="33" y="0" type="curve"/>
      <point x="317" y="0" type="line" smooth="yes"/>
      <point x="629" y="0"/>
      <point x="770" y="98"/>
      <point x="770" y="262" type="curve" smooth="yes"/>
      <point x="770" y="393"/>
      <point x="671" y="471"/>
    </contour>
    <contour>
      <point x="587" y="258" type="curve"/>
      <point x="587" y="183"/>
      <point x="468" y="146"/>
      <point x="343" y="146" type="curve" smooth="yes"/>
      <point x="221" y="146" type="line"/>
      <point x="297" y="251"/>
      <point x="411" y="324"/>
      <point x="499" y="324" type="curve" smooth="yes"/>
      <point x="547" y="324"/>
      <point x="587" y="306"/>
    </contour>
    <contour>
      <point x="482" y="517" type="curve"/>
      <point x="533" y="517"/>
      <point x="564" y="550"/>
      <point x="564" y="593" type="curve" smooth="yes"/>
      <point x="564" y="638"/>
      <point x="529" y="670"/>
      <point x="482" y="670" type="curve" smooth="yes"/>
      <point x="436" y="670"/>
      <point x="400" y="638"/>
      <point x="400" y="593" type="curve" smooth="yes"/>
      <point x="400" y="550"/>
      <point x="433" y="517"/>
    </contour>
  </outline>
</glyph>
<glyph name="smalltoe.ur" format="1">
  <advance width="509"/>
  <outline>
    <contour>
      <point x="114" y="92" type="curve"/>
      <point x="97" y="94"/>
      <point x="81" y="97"/>
      <point x="72" y="99" type="curve"/>
      <point x="65" y="89"/>
      <point x="59" y="71"/>
      <point x="59" y="57" type="curve" smooth="yes"/>
      <point x="59" y="25"/>
      <point x="74" y="19"/>
      <point x="93" y="12" type="curve" smooth="yes"/>
      <point x="123" y="1"/>
      <point x="188" y="-7"/>
      <point x="220" y="-7" type="curve" smooth="yes"/>
      <point x="331" y="-7"/>
      <point x="390" y="32"/>
      <point x="390" y="100" type="curve" smooth="yes"/>
      <point x="390" y="152"/>
      <point x="350" y="191"/>
      <point x="293" y="191" type="curve" smooth="yes"/>
      <point x="262" y="191"/>
      <point x="238" y="186"/>
      <point x="212" y="171" type="curve"/>
      <point x="212" y="213" type="line" smooth="yes"/>
      <point x="212" y="250"/>
      <point x="180" y="256"/>
      <point x="154" y="256" type="curve" smooth="yes"/>
      <point x="140" y="256"/>
      <point x="130" y="255"/>
      <point x="115" y="252" type="curve"/>
      <point x="115" y="245"/>
    </contour>
    <contour>
      <point x="291" y="98" type="curve"/>
      <point x="291" y="80"/>
      <point x="264" y="72"/>
      <point x="224" y="72" type="curve" smooth="yes"/>
      <point x="216" y="72"/>
      <point x="203" y="73"/>
      <point x="197" y="73" type="curve"/>
      <point x="212" y="96"/>
      <point x="242" y="115"/>
      <point x="268" y="115" type="curve" smooth="yes"/>
      <point x="282" y="115"/>
      <point x="291" y="110"/>
    </contour>
  </outline>
</glyph>
